<svg xmlns="http://www.w3.org/2000/svg" width="831.4292pt" height="112.5pt" viewBox="0 0 831.42919 112.5"><path fill="#685f53" d="M547.414 22.485v-3.948h20.259V6.561H510.94v11.976h20.225v3.948c.006 18.433-13.159 33.777-24.862 43.307l-.389.313 7.17 9.454.43-.22c10.208-5.142 21.894-19.02 25.79-27.355 3.894 8.336 15.586 22.213 25.788 27.355l.435.22 7.16-9.454-.384-.313c-11.703-9.53-24.914-24.874-24.89-43.307M387.808 71.187h45.487v37.806h10.753c2.254 0 4.092-.748 5.332-2.104 1.24-1.357 1.867-3.27 1.867-5.524V71.187h45.26V58.805H387.808zM406.898 49.294c2.197 1.982 5.617 3.165 10.498 3.165h63.282V40.877h-58.76c-1.2-.011-2.18-.927-2.18-2.07v-5.784h57.399V22.85h-57.399v-8.07h60.94V3.524h-76.887v38.079c0 2.944.905 5.71 3.107 7.692M636.71 43.49l.499-.123c15.36-3.663 28.705-9.524 35.36-16.532 6.642 7.008 19.986 12.869 35.353 16.532l.504.122 3.954-10.283-.58-.157s-1.681-.452-4.255-1.327c-3.872-1.322-9.761-3.594-15.013-6.684-4.985-2.921-9.362-6.59-10.927-10.764h28.624V2.559h-75.34v11.715h28.648c-2.104 5.634-9.367 10.347-16.294 13.582-3.606 1.692-7.078 2.985-9.652 3.866-2.585.875-4.255 1.327-4.255 1.327l-.58.157.21.527zM755.309 69.36h16.96V51.524h25.819c6.469 0 11.715-.852 16.312-2.893v9.072h-21.871v11.97h21.87v10.608h8.597c2.244 0 4.075-.748 5.304-2.04 1.252-1.287 1.884-3.078 1.884-5.107V.003H814.4v37.98c-3.577 1.414-8.278 1.947-14.046 1.947h-2.475c2.371-4 3.391-10.12 3.42-16.816V2.344h-58.511v11.977h42.663v11.106c.012 3.884-.492 11.449-1.217 14.503h-49.3v11.594h20.375zM775.636 94.539c-1.211 0-2.19-.916-2.197-2.07V75.01h-17.042v20.799c0 2.95.904 5.698 3.096 7.692 2.208 1.988 5.628 3.188 10.515 3.177h61.421V94.539ZM620.1 60.37h104.937V48.835H620.1ZM695.187 72.196c-5.814-4.243-13.802-6.863-22.618-6.863-8.823 0-16.81 2.62-22.625 6.863-5.808 4.243-9.43 10.156-9.43 16.712 0 6.561 3.622 12.474 9.43 16.729 5.814 4.249 13.802 6.851 22.625 6.863 8.817-.012 16.804-2.614 22.618-6.863 5.803-4.255 9.443-10.168 9.443-16.73 0-6.555-3.64-12.468-9.443-16.711M684 97.365c-2.904 2.191-6.95 3.56-11.431 3.56-4.475 0-8.521-1.369-11.431-3.56-2.91-2.191-4.684-5.165-4.684-8.457 0-3.27 1.774-6.25 4.684-8.435 2.91-2.19 6.956-3.559 11.43-3.559 4.482 0 8.528 1.368 11.432 3.56 2.91 2.185 4.672 5.164 4.672 8.434 0 3.292-1.762 6.266-4.672 8.457M599.4 0h-16.173v103.163h8.968c2.254 0 4.086-.748 5.327-2.034 1.24-1.293 1.878-3.084 1.878-5.113V44.947h14.59V31.8H599.4z" style="fill:#655c4f;fill-opacity:1;stroke-width:5.79666"/><path fill="#d8242a" d="M340 24.532h9.322c.614 0 1.101-.458 1.101-1.026V6.956c0-.579-.487-1.043-1.101-1.043h-13.095c-15.135 0-23.175 4.556-27.76 14.248l-28.473 65.66c-1.733 3.918-4.22 5.779-9.124 5.779V6.957c0-.58-.504-1.044-1.113-1.044h-20.926c-.603 0-1.101.464-1.101 1.044V108.38c0 1.02.87 1.837 1.959 1.837h23.459c15.14 0 22.062-4.556 26.647-14.236l28.102-64.824c2.255-4.603 5.502-6.626 12.104-6.626M84.243 58.076c8.393-3.286 15.361-10.677 15.361-22.89 0-18.22-16.613-29.274-36.64-29.274H1.095C.493 5.912 0 6.382 0 6.956v16.549c0 .568.493 1.026 1.096 1.026h57.578c9.303 0 15.581 5.345 15.581 11.924 0 6.596-6.278 11.93-15.581 11.93h-34.2v-12.29c0-.562-.499-1.031-1.102-1.031H1.096c-.603 0-1.096.47-1.096 1.031v73.079c0 .585.493 1.043 1.096 1.043H62.07c22.792 0 39.11-10.016 39.11-30.397 0-10.017-6.284-18.312-16.938-21.744m-24.38 33.975h-35.39V67.589h35.39c9.535 0 15.975 5.483 15.975 12.23 0 6.76-6.44 12.232-15.976 12.232M361.66 109.034l-35.875-43.197c-.104-.133-.255-.098-.313.035l-9.669 22.23c-.046.145-.046.296.058.412l15.68 19.795c1.102 1.374 2.365 1.907 4.243 1.907h25.274c.736 0 1.043-.655.603-1.182M140.478 35.066h-20.96c-.604 0-1.09.463-1.09 1.031v73.079c0 .58.486 1.043 1.09 1.043h20.96c.603 0 1.101-.463 1.101-1.043V36.097c0-.568-.498-1.031-1.1-1.031" style="fill:#d71921;fill-opacity:1;stroke-width:5.79666"/><path fill="#d8242a" d="M226.652 5.914h-20.938c-.608 0-1.095.464-1.095 1.043V91.6c-4.91 0-7.391-1.86-9.113-5.78L167.01 20.163c-4.58-9.692-12.608-14.248-27.76-14.248h-19.732c-.603 0-1.09.464-1.09 1.043v16.544c0 .574.487 1.032 1.09 1.032h15.964c6.608 0 9.837 2.023 12.11 6.62l28.101 64.83c4.586 9.68 11.507 14.236 26.648 14.236h23.47c1.073 0 1.93-.817 1.93-1.838V6.957c0-.58-.486-1.043-1.09-1.043" style="fill:#d71921;fill-opacity:1;stroke-width:5.79666"/></svg>