<svg xmlns="http://www.w3.org/2000/svg" xml:space="preserve" width="156px" height="52px" x="0px" y="0px" viewBox="0 0 156 52"><g fill="#1D1D1B"><path d="M5.244 13.502c0-6.233 0-7.381-.081-8.694-.082-1.394-.411-2.05-1.764-2.338-.329-.081-1.025-.123-1.6-.123-.451 0-.697-.082-.697-.369s.288-.369.903-.369c2.173 0 4.757.124 5.905.124 1.271 0 3.855-.124 6.315-.124 5.127 0 11.977 0 16.446 4.676 2.051 2.133 3.979 5.536 3.979 10.417 0 5.168-2.174 9.104-4.471 11.443-1.886 1.927-6.151 4.839-13.739 4.839-1.477 0-3.158-.124-4.716-.246-1.558-.123-2.994-.246-4.019-.246-.451 0-1.354 0-2.337.041-.943 0-2.01.082-2.83.082-.533 0-.819-.123-.819-.411 0-.204.163-.327.656-.327.615 0 1.106-.082 1.477-.164.819-.164 1.025-1.066 1.188-2.256.205-1.723.205-4.962.205-8.736v-7.219zm5.127 4.512c0 4.347.041 7.505.082 8.285.041 1.025.123 2.665.452 3.116.532.779 2.132 1.641 5.373 1.641 4.183 0 6.972-.82 9.432-2.953 2.625-2.255 3.445-5.988 3.445-10.211 0-5.208-2.173-8.572-3.937-10.253-3.773-3.609-8.448-4.101-11.647-4.101-.821 0-2.338.123-2.665.287-.369.164-.493.369-.493.82-.041 1.395-.041 4.962-.041 8.202v5.167zM41.382 32.122c-.656-.288-.779-.492-.779-1.395 0-2.256.165-4.717.205-5.373.041-.615.164-1.066.492-1.066.369 0 .411.369.411.697 0 .533.163 1.396.369 2.092.901 3.035 3.321 4.143 5.864 4.143 3.691 0 5.496-2.502 5.496-4.676 0-2.01-.615-3.896-4.019-6.562l-1.887-1.477c-4.511-3.527-6.069-6.398-6.069-9.719 0-4.512 3.773-7.752 9.474-7.752 2.666 0 4.389.41 5.455.698.369.082.574.205.574.492 0 .533-.165 1.722-.165 4.921 0 .903-.123 1.23-.45 1.23-.288 0-.411-.247-.411-.738 0-.369-.205-1.64-1.066-2.707-.615-.779-1.805-2.01-4.471-2.01-3.034 0-4.88 1.764-4.88 4.225 0 1.886.943 3.322 4.347 5.906l1.148.861c4.963 3.732 6.727 6.562 6.727 10.458 0 2.379-.902 5.208-3.855 7.136-2.051 1.313-4.348 1.682-6.521 1.682-2.379 0-4.225-.287-5.989-1.066zM67.063 3.654c0-1.781 0-2.108-.023-2.483-.023-.398-.141-.597-.398-.656a1.67 1.67 0 0 0-.422-.046c-.117 0-.187-.023-.187-.118 0-.069.094-.094.281-.094.446 0 1.184.036 1.523.036.293 0 .984-.036 1.429-.036.153 0 .247.024.247.094 0 .095-.071.118-.188.118a2.02 2.02 0 0 0-.351.035c-.317.059-.41.258-.433.668-.024.375-.024.702-.024 2.483v2.062c0 1.137 0 2.062.047 2.565.035.316.117.527.468.575.165.022.421.046.598.046.128 0 .188.036.188.094 0 .082-.094.117-.222.117-.774 0-1.511-.035-1.828-.035-.269 0-1.007.035-1.476.035-.152 0-.234-.035-.234-.117 0-.058.046-.094.187-.094a2 2 0 0 0 .422-.046c.234-.047.304-.246.34-.585.058-.493.058-1.417.058-2.555V3.654zM73.193 7.521c.022.913.175 1.218.41 1.3.199.069.421.082.608.082.129 0 .199.023.199.094 0 .093-.105.117-.269.117-.762 0-1.231-.035-1.453-.035-.105 0-.656.035-1.265.035-.152 0-.258-.012-.258-.117 0-.07.07-.094.188-.094.151 0 .362-.013.525-.059.306-.093.353-.433.364-1.452l.105-6.934c0-.235.035-.399.152-.399.128 0 .235.152.434.363.14.153 1.921 2.062 3.631 3.76.796.797 2.377 2.483 2.578 2.672h.058l-.118-5.261C79.07.879 78.966.657 78.685.54c-.176-.07-.457-.07-.621-.07-.141 0-.188-.036-.188-.105 0-.094.128-.106.305-.106.608 0 1.171.036 1.417.036.128 0 .573-.036 1.147-.036.151 0 .27.013.27.106 0 .07-.07.105-.211.105-.117 0-.21 0-.352.035-.328.094-.422.34-.433.996l-.13 7.39c0 .259-.046.364-.152.364-.129 0-.269-.129-.397-.257-.738-.704-2.237-2.238-3.455-3.444-1.276-1.266-2.575-2.73-2.786-2.954h-.036l.13 4.921zM82.732 1.406c-.27-.645-.468-.774-.89-.891-.176-.046-.363-.046-.457-.046-.106 0-.14-.036-.14-.105 0-.094.128-.106.304-.106.621 0 1.288.036 1.699.036.293 0 .854-.036 1.439-.036.142 0 .27.024.27.106s-.07.105-.176.105c-.188 0-.362.012-.457.081a.286.286 0 0 0-.116.247c0 .152.104.481.269.902l2.017 5.318h.046c.504-1.289 2.025-5.062 2.307-5.834.059-.151.106-.328.106-.433 0-.094-.048-.188-.153-.222a1.543 1.543 0 0 0-.467-.059c-.106 0-.2-.012-.2-.094 0-.094.105-.118.328-.118.586 0 1.077.036 1.229.036.199 0 .75-.036 1.102-.036.151 0 .246.024.246.106s-.07.105-.188.105c-.117 0-.363 0-.574.141-.151.104-.326.304-.644 1.053-.457 1.101-.773 1.734-1.405 3.174-.75 1.71-1.3 2.988-1.558 3.573-.306.678-.375.867-.539.867-.153 0-.223-.164-.445-.714l-2.953-7.156zM92.471 3.654c0-1.781 0-2.108-.022-2.483-.023-.398-.117-.586-.505-.668a2.435 2.435 0 0 0-.455-.035c-.13 0-.2-.023-.2-.105s.082-.106.259-.106c.314 0 .655.013.948.013.305.012.573.023.737.023.375 0 2.706 0 2.929-.012.223-.024.41-.046.504-.071.058-.011.129-.046.188-.046s.07.046.07.105c0 .081-.058.222-.094.762-.013.117-.035.632-.059.773-.012.059-.035.128-.117.128s-.105-.059-.105-.164c0-.082-.012-.281-.07-.422-.082-.211-.199-.351-.786-.422-.197-.022-1.428-.046-1.661-.046-.06 0-.083.036-.083.118v2.963c0 .082.012.128.083.128.257 0 1.604 0 1.873-.022.281-.024.456-.06.563-.177.082-.094.129-.151.188-.151.047 0 .082.023.082.094 0 .07-.047.257-.094.855-.012.234-.047.703-.047.785 0 .094 0 .223-.104.223-.082 0-.106-.047-.106-.106-.012-.117-.012-.269-.047-.421-.059-.235-.222-.411-.655-.458-.223-.023-1.383-.035-1.664-.035-.059 0-.07.046-.07.117v.925c0 .399-.012 1.476 0 1.816.023.808.211.984 1.405.984.306 0 .796 0 1.102-.141.305-.14.444-.387.526-.867.024-.129.048-.176.129-.176.095 0 .095.094.095.211 0 .271-.095 1.067-.152 1.3-.082.306-.187.306-.632.306-.88 0-1.524-.024-2.027-.036a25.035 25.035 0 0 0-1.218-.035c-.13 0-.387 0-.668.011-.27 0-.574.024-.808.024-.152 0-.235-.035-.235-.117 0-.058.047-.094.187-.094.177 0 .317-.024.424-.046.232-.047.293-.305.339-.646.058-.492.058-1.417.058-2.495V3.654zM99.41 8.972c-.188-.083-.224-.14-.224-.398 0-.645.047-1.346.06-1.534.012-.175.047-.305.14-.305.106 0 .118.105.118.2 0 .152.046.397.104.597.259.867.948 1.183 1.677 1.183 1.053 0 1.567-.715 1.567-1.335 0-.574-.176-1.112-1.146-1.875l-.539-.421c-1.288-1.007-1.733-1.827-1.733-2.776 0-1.288 1.077-2.214 2.705-2.214.762 0 1.254.117 1.559.199.104.024.164.058.164.14 0 .152-.048.492-.048 1.406 0 .258-.034.352-.129.352-.082 0-.116-.07-.116-.21 0-.106-.06-.469-.306-.773-.175-.222-.514-.575-1.275-.575-.867 0-1.395.504-1.395 1.207 0 .539.27.949 1.242 1.687l.327.247c1.418 1.065 1.921 1.874 1.921 2.986 0 .68-.257 1.488-1.102 2.038-.586.375-1.24.481-1.861.481-.68-.002-1.207-.084-1.71-.307zM108.609.914l-1.746.046c-.68.024-.96.082-1.137.339a1.373 1.373 0 0 0-.198.411c-.023.094-.06.14-.13.14-.08 0-.104-.058-.104-.188 0-.188.222-1.253.246-1.346.035-.153.07-.223.141-.223.093 0 .21.117.503.141.34.035.785.058 1.171.058h4.64c.375 0 .632-.036.808-.058.175-.036.27-.059.316-.059.082 0 .094.071.094.246 0 .246-.035 1.054-.035 1.359-.012.117-.036.187-.105.187-.095 0-.116-.058-.128-.234l-.013-.128c-.023-.305-.34-.633-1.382-.656l-1.476-.035v4.802c0 1.078 0 2.003.058 2.506.036.329.106.586.457.634.164.022.422.046.598.046.129 0 .188.036.188.094 0 .082-.093.117-.223.117-.772 0-1.511-.035-1.84-.035-.269 0-1.007.035-1.476.035-.152 0-.233-.035-.233-.117 0-.058.046-.094.188-.094.176 0 .315-.024.421-.046.235-.047.305-.305.34-.646.06-.492.06-1.417.06-2.495V.914zM115.806.304c.034-.198.105-.304.198-.304.095 0 .165.058.317.363l3.198 6.605L122.704.28c.094-.186.153-.28.259-.28.104 0 .176.117.21.363l1.066 7.239c.106.737.222 1.077.574 1.183.34.104.574.117.726.117.105 0 .188.012.188.082 0 .094-.142.129-.306.129-.293 0-1.908-.035-2.377-.071-.27-.023-.341-.058-.341-.128 0-.058.048-.094.129-.128.07-.024.106-.176.06-.504l-.703-5.153h-.046l-2.555 5.317c-.27.551-.327.656-.433.656-.106 0-.223-.235-.41-.585-.281-.539-1.206-2.331-1.348-2.659-.105-.246-.809-1.722-1.218-2.601h-.047l-.608 4.662a4.526 4.526 0 0 0-.036.551c0 .223.152.328.351.375.212.046.375.059.493.059.093 0 .176.023.176.082 0 .104-.105.129-.281.129-.492 0-1.02-.035-1.23-.035-.222 0-.784.035-1.159.035-.118 0-.211-.024-.211-.129 0-.059.07-.082.188-.082.094 0 .176 0 .351-.036.329-.07.422-.527.481-.925l1.159-7.639zM127.771 3.654c0-1.781 0-2.108-.021-2.483-.024-.398-.118-.586-.505-.668a2.459 2.459 0 0 0-.457-.035c-.13 0-.199-.023-.199-.105s.082-.106.258-.106c.316 0 .656.013.949.013.305.012.573.023.737.023.375 0 2.706 0 2.929-.012.223-.024.41-.046.504-.071.058-.011.128-.046.188-.046.059 0 .07.046.07.105 0 .081-.059.222-.094.762-.013.117-.036.632-.06.773-.011.059-.035.128-.116.128-.082 0-.105-.059-.105-.164 0-.082-.012-.281-.07-.422-.082-.211-.199-.351-.786-.422-.198-.022-1.428-.046-1.662-.046-.059 0-.082.036-.082.118v2.963c0 .082.012.128.082.128.257 0 1.604 0 1.874-.022.281-.024.457-.06.563-.177.082-.094.128-.151.188-.151.047 0 .081.023.081.094 0 .07-.047.257-.093.855-.012.234-.048.703-.048.785 0 .094 0 .223-.104.223-.083 0-.106-.047-.106-.106-.012-.117-.012-.269-.047-.421-.059-.235-.222-.411-.656-.458-.222-.023-1.383-.035-1.664-.035-.058 0-.069.046-.069.117v.925c0 .399-.013 1.476 0 1.816.023.808.211.984 1.405.984.306 0 .796 0 1.102-.141.305-.14.444-.387.526-.867.024-.129.048-.176.13-.176.094 0 .094.094.094.211a9.07 9.07 0 0 1-.153 1.3c-.082.306-.187.306-.632.306-.879 0-1.523-.024-2.027-.036a24.964 24.964 0 0 0-1.217-.035c-.13 0-.387 0-.668.011-.271 0-.574.024-.808.024-.153 0-.235-.035-.235-.117 0-.058.047-.094.187-.094.177 0 .317-.024.424-.046.232-.047.292-.305.339-.646.058-.492.058-1.417.058-2.495V3.654zM136.01 7.521c.022.913.176 1.218.41 1.3.198.069.422.082.609.082.128 0 .198.023.198.094 0 .093-.105.117-.27.117-.761 0-1.229-.035-1.452-.035-.105 0-.656.035-1.266.035-.152 0-.257-.012-.257-.117 0-.07.07-.094.188-.094.151 0 .362-.013.526-.059.306-.093.352-.433.363-1.452l.106-6.934c0-.235.033-.399.151-.399.129 0 .234.152.434.363a148.02 148.02 0 0 0 3.631 3.76c.796.797 2.378 2.483 2.577 2.672h.059l-.117-5.262c-.011-.714-.115-.936-.396-1.053-.176-.07-.457-.07-.621-.07-.141 0-.188-.036-.188-.105 0-.094.128-.106.304-.106.609 0 1.172.036 1.418.036.128 0 .574-.036 1.147-.036.153 0 .27.013.27.106 0 .07-.07.105-.21.105-.118 0-.212 0-.352.035-.329.094-.423.34-.435.996l-.128 7.39c0 .259-.047.364-.153.364-.128 0-.269-.129-.396-.257-.738-.704-2.238-2.238-3.456-3.444-1.277-1.265-2.577-2.729-2.788-2.952h-.035l.129 4.92zM148.187.914 146.44.96c-.68.024-.96.082-1.137.339a1.34 1.34 0 0 0-.197.411c-.024.094-.061.14-.131.14-.081 0-.104-.058-.104-.188 0-.188.223-1.253.246-1.346.035-.153.07-.223.14-.223.094 0 .212.117.504.141.34.035.785.058 1.172.058h4.639c.375 0 .632-.036.808-.058.176-.036.27-.059.316-.059.082 0 .094.071.094.246 0 .246-.035 1.054-.035 1.359-.012.117-.035.187-.105.187-.094 0-.116-.058-.128-.234l-.013-.128c-.023-.305-.339-.633-1.382-.656l-1.476-.035v4.802c0 1.078 0 2.003.058 2.506.035.329.106.586.458.634.163.022.421.046.597.046.13 0 .188.036.188.094 0 .082-.094.117-.223.117-.772 0-1.511-.035-1.84-.035-.269 0-1.007.035-1.476.035-.152 0-.234-.035-.234-.117 0-.058.047-.094.188-.094.176 0 .315-.024.421-.046.235-.047.305-.305.341-.646.059-.492.059-1.417.059-2.495V.914zM67.731 17.977c-.492-.656-.586-1.137-.597-1.664-.012-.925.808-2.156 2.846-2.156.574 0 1.102.118 1.417.246.199.071.199.165.199.305 0 .387-.093 1.324-.128 1.5-.024.176-.07.199-.14.199s-.082-.046-.082-.222c0-.305-.082-.68-.34-.985-.233-.28-.645-.526-1.3-.526-.492 0-1.253.34-1.253 1.335 0 1.101 1.008 2.039 1.945 3.08.398.457 1.839 1.758 2.061 1.957.235-.329.563-1.09.563-1.805a.685.685 0 0 0-.224-.538c-.151-.14-.397-.176-.573-.176-.071 0-.141-.023-.141-.094 0-.093.095-.117.188-.117.28 0 .749.012 1.405.082.222.023.398.094.398.235 0 .901-.48 1.992-1.147 2.775.784.645 1.311.96 1.627 1.148.375.222 1.02.411 1.253.411.105 0 .164.012.164.104 0 .07-.095.106-.352.106h-.901c-1.336 0-1.758-.128-2.765-.902-.387.352-1.171 1.067-2.775 1.067-2.507 0-3.257-1.57-3.257-2.589 0-1.37 1.206-2.437 1.909-2.776zm3.666 3.923a38.115 38.115 0 0 1-2.107-2.014c-.306-.329-1.055-1.171-1.254-1.465-.398.294-.808.844-.808 1.78 0 1.465 1.031 2.402 2.249 2.402.902.001 1.674-.468 1.92-.703zM79.662 23.037c-.188-.083-.224-.14-.224-.398 0-.645.048-1.346.061-1.534.011-.176.046-.305.14-.305.105 0 .117.105.117.2 0 .151.047.397.105.596.258.868.948 1.183 1.676 1.183 1.054 0 1.568-.714 1.568-1.335 0-.574-.176-1.111-1.147-1.874l-.538-.421c-1.289-1.008-1.734-1.827-1.734-2.777 0-1.287 1.077-2.214 2.705-2.214.762 0 1.254.118 1.559.2.105.023.164.058.164.14 0 .153-.047.492-.047 1.406 0 .257-.035.352-.13.352-.082 0-.116-.07-.116-.21 0-.106-.059-.47-.305-.774-.176-.223-.515-.574-1.276-.574-.867 0-1.395.503-1.395 1.207 0 .539.271.949 1.242 1.687l.328.247c1.418 1.065 1.921 1.874 1.921 2.986 0 .68-.258 1.488-1.102 2.038-.586.375-1.24.481-1.862.481-.68-.002-1.206-.084-1.71-.307zM87.128 17.719c0-1.781 0-2.108-.023-2.483-.023-.398-.117-.585-.505-.667a2.432 2.432 0 0 0-.457-.036c-.128 0-.197-.022-.197-.104s.082-.106.257-.106c.316 0 .657.013.949.013.304.012.573.023.737.023.374 0 2.706 0 2.929-.011.223-.024.41-.046.504-.071.058-.012.129-.046.187-.046.06 0 .07.046.07.105 0 .081-.058.222-.093.761-.013.117-.035.632-.06.772-.011.06-.035.128-.116.128-.082 0-.106-.058-.106-.163 0-.082-.011-.281-.069-.422-.083-.212-.199-.352-.785-.422-.198-.023-1.429-.046-1.662-.046-.061 0-.082.035-.082.117v2.964c0 .082.011.128.082.128.257 0 1.604 0 1.873-.022.28-.024.457-.06.563-.177.081-.094.129-.152.188-.152.048 0 .081.023.081.094 0 .071-.046.257-.094.855-.012.234-.046.703-.046.784 0 .095 0 .223-.105.223-.082 0-.105-.046-.105-.105-.012-.118-.012-.269-.047-.421-.059-.235-.223-.411-.656-.457-.223-.023-1.382-.036-1.663-.036-.059 0-.069.047-.069.118v.924c0 .399-.013 1.477 0 1.816.021.808.21.984 1.404.984.306 0 .797 0 1.102-.141.305-.14.444-.387.526-.867.023-.129.048-.176.13-.176.093 0 .093.094.093.211 0 .271-.093 1.066-.151 1.3-.082.305-.188.305-.633.305-.879 0-1.523-.023-2.026-.035a25.2 25.2 0 0 0-1.219-.036c-.129 0-.386 0-.668.012-.27 0-.573.024-.808.024-.152 0-.233-.036-.233-.118 0-.058.046-.093.187-.093.177 0 .316-.024.422-.047.233-.046.293-.304.34-.645.059-.492.059-1.417.059-2.495v-2.061zM94.709 22.064c-1.147-1.007-1.453-2.319-1.453-3.456 0-.796.246-2.178 1.371-3.209.844-.773 1.956-1.243 3.701-1.243.728 0 1.16.047 1.699.118.445.059.819.165 1.17.199.13.012.177.07.177.14 0 .094-.034.235-.059.645-.024.386-.012 1.03-.034 1.265-.012.176-.036.271-.142.271-.093 0-.117-.095-.117-.259a1.674 1.674 0 0 0-.457-1.078c-.386-.41-1.299-.726-2.378-.726-1.02 0-1.687.257-2.201.726-.855.785-1.078 1.898-1.078 3.034 0 2.788 2.12 4.17 3.69 4.17 1.042 0 1.675-.117 2.143-.655.199-.223.353-.563.398-.774.036-.187.058-.233.151-.233.083 0 .106.081.106.175 0 .14-.14 1.16-.258 1.558-.059.199-.105.257-.305.339-.468.188-1.358.271-2.108.271-1.603 0-2.95-.353-4.016-1.278zM103.405 17.719c0-1.781 0-2.108-.022-2.483-.023-.398-.117-.585-.504-.667a2.44 2.44 0 0 0-.457-.036c-.128 0-.198-.022-.198-.104s.082-.106.258-.106c.621 0 1.358.036 1.71.036.281 0 1.019-.036 1.439-.036.177 0 .259.024.259.106s-.07.104-.188.104c-.128 0-.198.012-.339.036-.316.059-.409.257-.433.667-.024.375-.024.703-.024 2.483v1.64c0 1.699.339 2.413.914 2.881.527.434 1.066.48 1.464.48.517 0 1.148-.164 1.617-.632.644-.646.679-1.699.679-2.906v-1.464c0-1.781 0-2.108-.022-2.483-.024-.398-.117-.585-.504-.667a2.314 2.314 0 0 0-.422-.036c-.13 0-.199-.022-.199-.104s.082-.106.246-.106c.598 0 1.336.036 1.347.036.141 0 .879-.036 1.335-.036.164 0 .246.024.246.106s-.07.104-.21.104c-.129 0-.199.012-.34.036-.316.059-.41.257-.434.667-.023.375-.023.703-.023 2.483v1.253c0 1.3-.129 2.683-1.113 3.526-.832.714-1.674.844-2.436.844-.621 0-1.745-.036-2.602-.809-.597-.539-1.043-1.405-1.043-3.104v-1.709zM113.895 17.719c0-1.781 0-2.108-.022-2.483-.023-.398-.117-.585-.505-.667a2.435 2.435 0 0 0-.456-.036c-.13 0-.199-.022-.199-.104s.082-.106.257-.106c.622 0 1.36.036 1.605.036.398 0 1.288-.036 1.651-.036.738 0 1.523.071 2.155.503.329.223.797.82.797 1.606 0 .867-.363 1.663-1.546 2.624 1.042 1.312 1.85 2.354 2.542 3.081.656.679 1.136.762 1.312.796.128.023.234.036.327.036.095 0 .142.035.142.093 0 .094-.083.118-.224.118h-1.111c-.656 0-.95-.059-1.254-.223-.505-.269-.949-.819-1.605-1.722-.468-.644-1.007-1.44-1.159-1.617-.059-.07-.129-.082-.211-.082l-1.019-.022c-.059 0-.095.022-.095.093v.165c0 1.089 0 2.015.06 2.506.035.34.104.598.457.645.176.023.433.047.572.047.095 0 .143.035.143.093 0 .082-.083.118-.235.118-.679 0-1.546-.036-1.722-.036-.222 0-.96.036-1.429.036-.153 0-.234-.036-.234-.118 0-.058.047-.093.187-.093.177 0 .317-.024.423-.047.233-.046.292-.304.34-.645.058-.492.058-1.417.058-2.495v-2.064zm1.381.926c0 .128.024.175.106.211.245.082.598.117.89.117.468 0 .621-.046.831-.199.353-.258.692-.796.692-1.756 0-1.664-1.102-2.145-1.793-2.145-.292 0-.503.013-.62.047-.082.023-.106.07-.106.165v3.56z"/><path d="M122.743 17.719c0-1.781 0-2.108-.023-2.483-.024-.398-.141-.597-.398-.656a1.67 1.67 0 0 0-.422-.047c-.117 0-.188-.022-.188-.117 0-.069.094-.094.281-.094.445 0 1.184.036 1.523.036.292 0 .983-.036 1.429-.036.152 0 .245.024.245.094 0 .095-.07.117-.188.117-.116 0-.21.012-.351.036-.316.059-.41.257-.433.667-.024.375-.024.703-.024 2.483v2.061c0 1.138 0 2.063.047 2.566.035.316.117.527.469.574.164.023.422.047.598.047.129 0 .187.035.187.093 0 .082-.093.118-.223.118-.772 0-1.51-.036-1.827-.036-.269 0-1.007.036-1.476.036-.152 0-.234-.036-.234-.118 0-.058.047-.093.188-.093.176 0 .315-.024.422-.047.234-.046.305-.246.34-.585.059-.492.059-1.417.059-2.554v-2.062zM129.598 14.978l-1.745.047c-.68.023-.96.082-1.136.339a1.39 1.39 0 0 0-.199.41c-.023.094-.059.141-.13.141-.082 0-.104-.059-.104-.188 0-.188.222-1.253.246-1.347.035-.152.07-.223.14-.223.094 0 .211.118.504.142.34.035.785.058 1.171.058h4.64c.374 0 .633-.036.808-.058.176-.036.271-.06.316-.06.082 0 .094.071.094.247 0 .246-.035 1.054-.035 1.359-.011.117-.035.187-.104.187-.095 0-.118-.058-.129-.234l-.013-.128c-.022-.305-.34-.633-1.382-.656l-1.476-.036v4.802c0 1.078 0 2.003.059 2.507.034.329.105.586.456.633.164.023.422.047.597.047.13 0 .188.035.188.093 0 .082-.094.118-.222.118-.774 0-1.513-.036-1.84-.036-.27 0-1.007.036-1.476.036-.153 0-.235-.036-.235-.118 0-.058.048-.093.188-.093.176 0 .316-.024.423-.047.234-.046.304-.304.339-.645.059-.492.059-1.417.059-2.495v-4.802zM136.362 17.719c0-1.781 0-2.108-.023-2.483-.024-.398-.141-.597-.399-.656a1.663 1.663 0 0 0-.421-.047c-.117 0-.188-.022-.188-.117 0-.069.095-.094.282-.094.445 0 1.184.036 1.522.036.293 0 .983-.036 1.429-.036.152 0 .246.024.246.094 0 .095-.07.117-.188.117s-.211.012-.351.036c-.317.059-.411.257-.433.667-.024.375-.024.703-.024 2.483v2.061c0 1.138 0 2.063.046 2.566.036.316.117.527.469.574.164.023.422.047.598.047.129 0 .188.035.188.093 0 .082-.094.118-.223.118-.773 0-1.51-.036-1.827-.036-.269 0-1.007.036-1.476.036-.152 0-.234-.036-.234-.118 0-.058.047-.093.188-.093.176 0 .315-.024.422-.047.234-.046.305-.246.339-.585.06-.492.06-1.417.06-2.554v-2.062zM141.659 17.719c0-1.781 0-2.108-.023-2.483-.023-.398-.117-.585-.504-.667a2.435 2.435 0 0 0-.456-.036c-.131 0-.199-.022-.199-.104s.081-.106.257-.106c.316 0 .656.013.949.013.305.012.573.023.737.023.375 0 2.705 0 2.929-.011.223-.024.41-.046.503-.071.06-.012.13-.046.188-.046.06 0 .071.046.071.105 0 .081-.059.222-.094.761-.013.117-.035.632-.06.772-.012.06-.033.128-.116.128-.082 0-.105-.058-.105-.163 0-.082-.012-.281-.071-.422-.082-.212-.197-.352-.784-.422-.199-.023-1.429-.046-1.663-.046-.059 0-.082.035-.082.117v2.964c0 .082.012.128.082.128.258 0 1.604 0 1.875-.022.28-.024.456-.06.562-.177.082-.094.128-.152.188-.152.047 0 .083.023.083.094 0 .071-.049.257-.095.855-.012.234-.048.703-.048.784 0 .095 0 .223-.104.223-.082 0-.105-.046-.105-.105-.012-.118-.012-.269-.047-.421-.058-.235-.223-.411-.656-.457-.222-.023-1.382-.036-1.664-.036-.058 0-.069.047-.069.118v.924c0 .399-.012 1.477 0 1.816.023.808.211.984 1.405.984.305 0 .797 0 1.102-.141.304-.14.444-.387.526-.867.024-.129.047-.176.129-.176.095 0 .095.094.095.211 0 .271-.095 1.066-.153 1.3-.082.305-.187.305-.632.305-.878 0-1.522-.023-2.027-.035a25.128 25.128 0 0 0-1.218-.036c-.128 0-.386 0-.667.012-.269 0-.574.024-.808.024-.153 0-.235-.036-.235-.118 0-.058.048-.093.188-.093.176 0 .316-.024.422-.047.234-.046.293-.304.34-.645.059-.492.059-1.417.059-2.495v-2.061zM148.422 23.037c-.188-.083-.223-.14-.223-.398 0-.645.046-1.346.059-1.534.011-.176.047-.305.141-.305.105 0 .116.105.116.2 0 .151.048.397.105.596.259.868.949 1.183 1.676 1.183 1.055 0 1.569-.714 1.569-1.335 0-.574-.176-1.111-1.148-1.874l-.538-.421c-1.289-1.008-1.734-1.827-1.734-2.777 0-1.287 1.079-2.214 2.706-2.214.762 0 1.253.118 1.559.2.105.023.164.058.164.14 0 .153-.047.492-.047 1.406 0 .257-.035.352-.13.352-.081 0-.116-.07-.116-.21 0-.106-.059-.47-.305-.774-.177-.223-.516-.574-1.276-.574-.867 0-1.394.503-1.394 1.207 0 .539.27.949 1.241 1.687l.328.247c1.417 1.065 1.921 1.874 1.921 2.986 0 .68-.258 1.488-1.102 2.038-.586.375-1.241.481-1.862.481-.681-.002-1.206-.084-1.71-.307zM.82 49.462h154.359V52H.82z"/></g></svg>