<svg xmlns="http://www.w3.org/2000/svg" xml:space="preserve" style="fill-rule:evenodd;clip-rule:evenodd;stroke-linejoin:round;stroke-miterlimit:2" viewBox="0 0 5486.27 1181.1"><path d="M0 7.692A3919.61 3919.61 0 0 1-3.457 5.51C-15.194-6.204-31.531-11.296-53.381-10.016-71.572-8.899-86.002-1.703-97.016 5.007c0-.168-.017-.321-.017-.491 0-5.701.653-11.874 1.284-17.871.645-6.099 1.293-12.304 1.293-18.177 0-5.998-.679-11.663-2.745-16.522-.521-1.261-1.66-1.996-3.112-1.996-5.893.135-17.366 4.161-20.142 6.596 0 .006-1.514 3.312-1.514 3.312-.111 6.495-1.523 24.678-2.962 26.873.053-.068-.795 2.205-.795 2.205-2.463 25.961-2.516 48.775-.221 68.36.252 1.959 4.022 4.912 6.931 5.975 3.178 1.178 13.181-1.501 18.941-3.682-.057.021 2.185-.329 2.185-.329 1.827-.203 2.9-1.736 2.794-3.813-.008-.033.128-5.635.128-5.635C-90.787 32.9-73.943 12.733-54.03 9.696c11.252-1.781 20.142 1.088 27.174 8.767.944 1.368 2.997 13.532-4.423 27.517-5.522 10.352-16.58 19.066-31.107 24.53-13.764 5.213-28.909 7.341-47.603 6.684-.76-.506-17.507-11.826-17.507-11.826-14.801-10.405-33.216-23.361-49.938-29.701-2.904-1.116-8.184-5.486-11.335-8.096l-1.722-1.419c-9.632-7.719-27.955-19.931-42.681-29.745 0 0-6.648-4.444-7.941-5.306.018-.56.049-1.662.049-1.662.41-.466 9.653-6.013 9.653-6.013 12.952-7.576 18.933-11.286 20.209-13.217-.261.309 1.73-1.012 1.73-1.012.093-.05 32.087-18.152 32.087-18.152 30.798-16.945 65.71-36.146 84.046-55.134.027-.022.888-2.891.888-2.891l.406-2.595c1.2-4.046 1.284-7.169.278-10.771-.278-1.036-1.227-2.227-2.494-2.461-14.307-1.405-32.78 7.175-49.58 22.925-3.796 3.572-6.984 5.304-10.352 7.146l-2.569 1.422c-18.535 10.527-60.285 36.441-82.122 50.423 1.435-23.501 5.783-56.919 11.129-84.788l-.597-3.326c-.07-.116-2.255-4.209-2.255-4.209l-1.708-3.03-.495-.132c-4.352-2.203-7.919-1.296-10.528-.632.013 0-4.383 1.606-4.383 1.606l-5.8 2.11c-1.148.228-1.982.926-2.433 2.052-10.426 25.224-19.13 66.708-21.181 99.902-20.862-13.282-40.147-22.804-49.58-27.419l-.284-.144-1.131-.245c-3.381-.434-7.536-2.942-11.544-5.364-.398-.244-7.91-5.131-7.91-5.131l-12.132-7.762c.113.073-3.183-.724-3.183-.724-5.218.888-15.202 7.606-18.161 12.18-.405.606-.55 1.269-.55 1.951 0 .95.289 1.936.55 2.861l.535 2.478.566 1.479c5.806 5.957 20.456 15.893 34.837 23.617l16.662 8.826 25.491 13.93c.008.118 4.375 3.447 4.375 3.447.015.004 3 1.738 3 1.738s.32.2.519.336l-46.359 30.977-24.41 16.155c-2.296 1.578-11.943 5.901-14.047 6.738-5.301 2.153-9.294 5.459-10.962 9.061l-.643 1.396.651.937 1.851 1.415c-.069-.012 2.516 1.633 2.516 1.633l2.686 1.848c.053.024 2.54.379 2.54.379 4.284.172 10.641-2.273 22.514-7.464 10.894-4.838 40.522-22.698 53.183-30.324l5.409-3.251c2.234.186 4.704-1.703 6.877-3.362 2.548-2.022 8.086-5.411 11.452-6.896.083-.037 2.027-1.118 3.81-2.111-.016.574-.032 1.452-.032 1.452.575 38.741 2.809 66.892 7.029 88.593l.079.392.406.865c2.092 3.078 4.467 12.256 6.564 20.356l4.825 16.165c.093.176 1.368 1.507 1.368 1.507 2.755 1.863 11.133 5.094 16.747 4.427l1.4-.162.887-1.97c.468-2.421.645-4.799.645-7.409 0-2.958-.221-6.217-.49-10.193l-.376-5.841c-1.765-27.032-3.548-66.101-3.548-92.066 0-.716.008-1.368.013-2.059l24.698 15.553c34.192 22.187 85.86 55.717 117.082 64.577 1.628.49 3.323.105 4.529-1.037.053-.049 4.815-3.079 4.815-3.079l.883-.368c1.806-.848 3.015-3.879 3.218-7.153 26.309-1.33 63.031-11.456 82.661-36.153 7.61-9.572 11.031-21.285 11.031-31.335C6.427 18.694 4.14 11.593 0 7.692" style="fill:#f8b500;fill-rule:nonzero" transform="translate(1631.235 574.042) scale(4.16667)"/><path d="M0 69.143V0h24.227v48.216h136.726v20.927H0Z" style="fill:#7c7366;fill-rule:nonzero" transform="translate(4815.629 680.409) scale(4.16667)"/><path d="M0-142.55v103.816h-38.963v20.095H0V0h24.11v-142.55H0Z" style="fill:#7c7366;fill-rule:nonzero" transform="translate(5373.504 752.7) scale(4.16667)"/><path d="M0 132.994V88.359h-60.879V67.432H39.133V20.806h-87.891V0H63.43v67.298h19.276v21.061H24.189v44.635H0Z" style="fill:#7c7366;fill-rule:nonzero" transform="translate(4976.712 174.183) scale(4.16667)"/><path d="M919.738 139.333h197.686v20.883H919.738z" style="fill:#7c7366" transform="translate(0 -67.02) scale(4.16667)"/><path d="M0-89.104c-44.334 0-80.315 14.68-80.315 44.532C-80.315-14.924-44.334 0 0 0c44.37 0 80.333-14.924 80.333-44.572C80.333-74.424 44.37-89.104 0-89.104m-.081 68.307c-30.421 0-55.015-7.325-55.015-23.726 0-16.271 24.594-23.692 55.015-23.692 30.332 0 54.978 7.421 54.978 23.692 0 16.401-24.646 23.726-54.978 23.726" style="fill:#7c7366;fill-rule:nonzero" transform="translate(4251.878 1008.96) scale(4.16667)"/><path d="M0 31.854c-4.664-.363-54.898-3.697-67.352-31.076h62.357v-20.765h-157.65V.778h62.347c-12.479 27.379-62.714 30.713-67.36 31.076v19.987c24.969-1.451 62.715-8.711 83.824-28.179C-62.714 43.13-24.969 50.39 0 51.841V31.854Z" style="fill:#7c7366;fill-rule:nonzero" transform="translate(4597.087 255.824) scale(4.16667)"/><path d="M0-192.756h30.765v86.279l103.577-86.279h43.595L68.46-105.694 187.008 0h-43.533L30.765-103.286V0H0v-192.756Z" style="fill:#7c7366;fill-rule:nonzero" transform="translate(2035.964 968.505) scale(4.16667)"/><path d="M0 148.986h-60.546V81.194h58.935c33.88 0 49.2 12.26 49.2 34.427 0 18.648-9.978 33.365-47.589 33.365M-60.546.057h58.935c35.437 0 43.883 11.974 43.883 29.862 0 20.563-17.144 29.381-40.339 29.381h-62.479V.057Zm94.73 70.17v-.806c21.602-4.302 37.861-20.322 37.861-43.589 0-32.721-23.562-47.717-68.59-47.717H-91.24v192.756H6.461c52.314 0 73.379-24.91 73.379-53.67 0-22.91-14.658-43.285-45.656-46.974" style="fill:#7c7366;fill-rule:nonzero" transform="translate(3282.728 256.541) scale(4.16667)"/></svg>