<svg xmlns="http://www.w3.org/2000/svg" width="238.34729pt" height="75pt" viewBox="0 0 238.3473 75"><path fill="#2b3f76" d="M65.76 46.13c-3.685 0-6.927 1.196-9.123 3.437-2.503 2.477-3.883 6.377-3.883 10.968 0 4.59 1.38 8.486 3.883 10.965 2.196 2.244 5.438 3.473 9.123 3.473 3.685 0 6.968-1.23 9.162-3.473 2.465-2.477 3.844-6.375 3.844-10.965s-1.38-8.49-3.844-10.968c-2.194-2.241-5.477-3.437-9.162-3.437m5.282 22.362c-1.206 1.535-3.109 2.413-5.282 2.413-2.134 0-4.074-.878-5.237-2.413-1.349-1.669-2.06-4.452-2.06-7.957 0-3.506.711-6.252 2.06-7.962 1.161-1.533 3.099-2.37 5.237-2.37 2.177 0 4.076.837 5.282 2.37 1.345 1.71 2.04 4.456 2.04 7.962 0 3.505-.695 6.288-2.04 7.957M137.03 49.568c-2.198-2.244-5.477-3.44-9.16-3.44-3.69 0-6.929 1.196-9.14 3.44-2.489 2.477-3.86 6.377-3.86 10.967 0 4.59 1.371 8.485 3.86 10.964 2.211 2.247 5.45 3.474 9.14 3.474 3.683 0 6.962-1.227 9.16-3.474 2.479-2.48 3.846-6.373 3.846-10.964 0-4.59-1.367-8.49-3.846-10.967m-3.882 18.923c-1.204 1.537-3.1 2.415-5.278 2.415-2.138 0-4.078-.878-5.247-2.415-1.341-1.667-2.054-4.45-2.054-7.956 0-3.505.713-6.25 2.054-7.963 1.169-1.533 3.109-2.366 5.247-2.366 2.177 0 4.074.833 5.278 2.366 1.35 1.712 2.04 4.458 2.04 7.963 0 3.506-.69 6.289-2.04 7.956M39.897 74.309c-.318-.29-.698-.938-.698-1.927V62.375l9.335-15.634h-6.391c.456.458.504 1.198-.06 2.08l-5.051 8.749c-4.252-7.691-4.245-7.915-5.014-9.313-.601-1.058-1.111-1.516-2.248-1.516h-5.032c.397.365.81.923 1.671 2.355l7.446 13.213v10.073c0 .99-.385 1.638-.7 1.927zM87.674 74.31c.314-.29.698-.94.698-1.928V48.666c0-.987-.384-1.646-.698-1.927H96.8c4.385 0 8.207 2.113 8.207 6.214 0 1.737-.797 4.198-2.82 5.284 2.454.938 5.061 3.209 5.061 7.051 0 2.853-1.415 5.353-3.323 6.788-1.756 1.33-3.795 2.234-7.125 2.234zm6.042-17.16c.998.114 3.029-.014 3.903-.47.87-.457 1.873-1.12 1.873-2.857 0-1.655-1.452-3.118-3.561-3.118-.785 0-1.444.04-2.215.283zm5.98 12.518c1.583-1.019 1.947-2.496 1.947-4.043 0-3.025-2.657-4.417-5.22-4.417-.548 0-1.87.019-2.707.161v8.836c1.758.49 4.574.372 5.98-.537M.698 72.382c0 .99-.38 1.638-.698 1.93h6.74c-.317-.292-.693-.94-.693-1.93V61.613l7.83 11.176c.722 1.058 1.284 1.523 2.418 1.523h5.409c-.436-.372-.916-.922-1.946-2.36l-8.838-12.52 9.036-12.69H13.31c.345.447.386 1.013-.258 2.096L6.047 58.94V48.666c0-.985.376-1.646.694-1.925H0c.318.279.698.94.698 1.925z" style="stroke-width:2.06583"/><path fill="#4ab154" d="M149.525 8.976c-2.516-2.55-6.672-2.11-9.126.494-3.188 3.348-5.67 4.598-8.631 4.474-4.124-.18-6.16-3.371-8.28-7.397C121.29 2.339 117.906 0 113.683 0c-6.635 0-10.614 5.373-10.614 11.364 0 9.22 6.483 14.734 10.972 17.058 3.728 1.94 7.879 2.751 11.566 2.842-.217 2.209-.863 5.12-1.584 7.177H131.617c-.748-2.058-1.413-5.208-1.614-7.418 11.123-1.442 16.403-6.498 19.297-11.305 1.298-2.107 1.992-4.3 1.98-6.267-.009-1.725-.556-3.291-1.755-4.475m-35.786 5.766a3.884 3.884 0 1 1-.487-7.753c2.134-.14 3.968 1.491 4.102 3.633a3.872 3.872 0 0 1-3.615 4.12" style="stroke-width:2.06583"/><path fill="#2b3f76" d="M165.52 70.694v-9.027h-3.249v9.027h-2.22v-9.027h-3.246v9.027h-4.398v2.543h20.08v-2.543Z" style="stroke-width:2.06583"/><path fill="#2b3f76" d="M167.341 68.216h2.124c.796-4.074 1.351-9.166 1.69-12.58.18-1.84.186-2.804-1.467-2.804h-15.105v2.545h12.759zM187.514 70.694v-4.346h-3.63v4.346h-8.277v2.543h20.08v-2.543ZM190.845 64.974c1.5 0 2.019-.833 2.019-2.018v-10.34h-3.628v4.186h-7.179v-4.186h-3.634v10.34c0 1.185.517 2.018 2.015 2.018zm-8.788-5.627h7.181v3.443h-7.18zM199.181 58.974l.954 1.967c2.329-.525 6.008-1.79 7.73-3.663 1.73 1.874 5.403 3.138 7.731 3.663l.957-1.967c-2.835-.8-5.235-2.095-6.338-3.836h5.408v-2.545h-15.516v2.545h5.41c-1.101 1.741-3.504 3.037-6.336 3.836M213.265 66.797c-1.496-.83-3.37-1.186-5.398-1.186-2.029 0-3.9.355-5.396 1.186-1.64.902-2.392 2.14-2.392 3.51 0 1.373.752 2.602 2.392 3.51 1.496.824 3.367 1.183 5.396 1.183 2.028 0 3.902-.36 5.398-1.184 1.636-.907 2.392-2.136 2.392-3.51 0-1.37-.756-2.607-2.392-3.51m-2.182 5.103c-.847.517-1.98.732-3.216.732-1.236 0-2.378-.215-3.217-.732-.76-.458-.979-1.004-.979-1.599 0-.59.22-1.136.98-1.595.838-.51 1.98-.727 3.216-.727 1.235 0 2.37.217 3.216.727.752.459.98 1.004.98 1.595 0 .595-.228 1.14-.98 1.6M197.824 64.491h20.082v-2.543h-20.082zM225.29 66.567h3.623v-3.729h5.807v1.531h-3.936v2.541h3.936v2.159h3.625V51.817h-3.625v8.476h-3.626c.558-1.797.79-3.06 1.019-4.917.223-1.836.171-2.712-1.494-2.712h-9.201v2.541h7.119v5.088h-7.714v2.545h4.466zM226.665 71.974v-4.776h-3.628v4.968c0 1.3.773 2.213 2.337 2.213h12.973v-2.405z" style="stroke-width:2.06583"/></svg>