<svg xmlns="http://www.w3.org/2000/svg" width="349.18866mm" height="200mm" viewBox="0 0 349.18866 200"><path d="M67.702 244.301c-5.41-2.543-9.87-4.597-9.87-8.738 0-3.169 2.539-5.472 7.534-5.472 1.833 0 3.353.198 4.908.495.81.134 1.685.257 2.401.257 4.366 0 6.833-2.6 8.471-7.552l.68-2.033c-.698-.278-7.838-3.414-17.151-3.414-14.804 0-22.63 9.505-22.62 19.379 0 4.97 1.56 8.586 3.997 11.422 3.15 3.657 7.62 6.054 11.802 8.09 6.098 3.003 11.606 5.216 11.606 9.658 0 3.942-4.069 6.192-9.52 6.192-7.44 0-13.953-4.268-14.778-4.785l-6.13 11.49c1.085.615 8.962 5.628 21.954 5.628 13.812-.004 24.272-7.95 24.272-20.164 0-12.138-9.7-16.648-17.556-20.453M121.76 249.963l25.076-30.783h-17.864l-19.993 26.573h-.3V219.18H93.953v65.212h.876c6.362 0 13.942-2.952 13.942-13.589v-14.98h.311l20.381 27.766h18.732zM147.675 149.324c-5.194.976-12.88 5.682-12.85 14.033.014 7.56 6.202 12.142 6.22 22.06.026 7.464-4.076 12.488-8.517 15.273a64.05 64.05 0 0 1 5.92-.268c4.543-.014 7.27.416 7.44.452l23.26-28.59c-6.467-9.683-14.011-17.195-21.473-22.96" style="fill:#e31838;fill-opacity:1;fill-rule:nonzero;stroke:none;stroke-width:3.61683" transform="matrix(1.30928 0 0 1.30928 -51.103 -173.138)"/><path d="M167.211 226.5c2.922-4.55 3.302-11.831 3.545-19.242.274-6.905 1.714-12.11 10.944-12.145 2.044-.011 4 .278 7.53.267 13.524-.058 22.345-4.727 27.843-7.783-11.223-7.162-27.611-14.486-47.927-15.314-1.32 3.758-11.62 32.425-12.406 34.736.127.141 1.928 2.167 4.181 6.116 3.324 5.422 5.1 10.015 6.29 13.364" style="fill:#e31838;fill-opacity:1;fill-rule:nonzero;stroke:none;stroke-width:3.61683" transform="matrix(1.30928 0 0 1.30928 -51.103 -173.138)"/><path d="M118.076 203.078c-1.164 0-1.75-.777-1.906-2.126-.148-1.357-5.971-54.63-6.84-62.706-.122-1.182-.415-3.341-.415-4.115-.01-1.245.803-1.892 1.761-1.892 2.753-.007 17.763 3.52 33.706 14.702-4.59 1.292-12.905 6.08-12.87 15.99.04 8.753 6.301 13.582 6.338 22.389.043 14.293-16.36 17.751-19.774 17.758M168.542 230.29c.25.676.485 1.244.727 1.627.362.633.836.915 1.436.915.366 0 .818-.14 1.32-.369 1.23-.564 49.793-23.198 57.117-26.584 1.075-.506 3.075-1.406 3.755-1.797.676-.39.987-.973.987-1.555a1.94 1.94 0 0 0-.271-.955c-.912-1.48-5.624-6.47-13.484-11.925-6.235 3.429-15.975 8.756-30.468 8.81-3.559.008-4.351-.245-6.774-.22-7.075.022-8.836 3.042-9.104 9.256-.043 1.171-.047 2.748-.13 4.484-.22 5.56-.872 13.205-5.11 18.312M232.978 237.572h13.455v-5.505h-43.699v5.505h13.534l-15.18 14.269h10.298l13.22-12.316 11.522 10.666c1.208 1.122 2.525 1.66 4.417 1.66l7.797-.01zM224.603 279.381c-7.364 0-12.333-3.58-12.333-7.996 0-4.427 4.97-8 12.333-8 7.364 0 12.337 3.573 12.337 8 0 4.416-4.973 7.996-12.337 7.996m26.334-23.267h-52.671v5.523h12.47c-4.195 2.43-6.474 6.051-6.474 10.084 0 7.335 7.426 13.274 20.341 13.274 12.912 0 20.341-5.939 20.341-13.274 0-4.033-2.267-7.653-6.47-10.084h12.464zM296.965 232.066v27.029h-12.12v5.515h12.12v4.43h7.863v-36.974z" style="fill:#f47725;fill-opacity:1;fill-rule:nonzero;stroke:none;stroke-width:3.61683" transform="matrix(1.30928 0 0 1.30928 -51.103 -173.138)"/><path d="M293.952 250.62h-4.456v-18.554h-26.692v5.508h18.836v13.046H258.8v5.512h14.084v10.214h7.863v-10.214h13.205M272.887 278.071v-9.9h-7.86v9.625c0 3.201 2.6 5.79 5.784 5.79h34.924v-5.515z" style="fill:#f47725;fill-opacity:1;fill-rule:nonzero;stroke:none;stroke-width:3.61683" transform="matrix(1.30928 0 0 1.30928 -51.103 -173.138)"/></svg>