<svg xmlns="http://www.w3.org/2000/svg" width="428.85742mm" height="100mm" viewBox="0 0 428.85742 100"><path d="M12.935 218.881h3.008v16.56h-3.008zM24.143 235.44v-16.558h2.954l10.673 12.793v-12.793h2.579v16.559h-2.935l-10.689-12.785v12.785zM54.355 235.44l-8.012-16.558h3.01l6.559 13.564 6.337-13.564h2.633l-7.694 16.559zM70.494 235.44v-16.558H82.34v1.761H73.5v5.31h7.41v1.734H73.5v6h9.458v1.754zM93.292 235.857c-1.424 0-3.242-.243-5.454-.728V232.8c2.384.866 4.346 1.3 5.886 1.3 1.184 0 2.134-.242 2.854-.728.726-.485 1.085-1.122 1.085-1.912 0-.65-.238-1.201-.71-1.654-.474-.459-1.346-.969-2.617-1.527l-1.459-.658c-1.805-.804-3.076-1.562-3.817-2.277-.742-.715-1.115-1.543-1.115-2.49 0-1.274.597-2.323 1.778-3.149 1.187-.823 2.698-1.238 4.53-1.238 1.63 0 3.356.216 5.172.64v2.147c-2.234-.685-3.901-1.028-4.997-1.028-1.047 0-1.904.216-2.587.647-.674.435-1.017.98-1.017 1.633 0 .553.254 1.044.75 1.47.496.424 1.4.933 2.725 1.516l1.516.672c1.832.817 3.11 1.583 3.842 2.31.72.717 1.087 1.59 1.087 2.605 0 1.438-.683 2.595-2.045 3.467-1.36.877-3.16 1.311-5.407 1.311M112.726 235.44v-14.797h-7.524v-1.761h18.054v1.761h-7.52v14.798zM147.408 235.44l-5.455-16.558h2.892l4.34 13.079 3.993-13.08h2.9l3.783 12.902 4.67-12.901h2.446l-5.943 16.559h-2.994l-3.74-12.764-3.911 12.764zM172.49 218.881h3.005v16.56h-3.005zM188.74 235.44v-14.802h-7.524v-1.756h18.056v1.756h-7.521v14.803zM204.995 235.44v-16.558h3.003v6.979h10.092v-6.98h3.008v16.56h-3.008v-7.818h-10.092v7.818zM245.808 235.44V218.88h3.073v14.803h9.742v1.759zM272.92 234.1c2.209 0 3.925-.613 5.125-1.832 1.211-1.22 1.818-2.943 1.818-5.166 0-2.153-.607-3.837-1.82-5.053-1.215-1.217-2.895-1.824-5.043-1.824-2.15 0-3.836.61-5.045 1.834-1.211 1.214-1.818 2.909-1.818 5.08 0 2.161.604 3.866 1.797 5.105 1.206 1.238 2.862 1.856 4.985 1.856m-.051 1.756c-3.003 0-5.42-.799-7.246-2.388-1.832-1.594-2.741-3.698-2.741-6.318 0-2.636.917-4.737 2.754-6.315 1.837-1.581 4.292-2.366 7.365-2.366 3.065 0 5.514.785 7.36 2.363 1.845 1.57 2.77 3.672 2.77 6.294 0 2.681-.925 4.807-2.77 6.377-1.846 1.562-4.341 2.353-7.492 2.353M294.872 235.44l-8.18-16.561h3.073l6.704 13.567 6.458-13.567h2.695l-7.856 16.562zM311.766 235.44V218.88h12.102v1.759h-9.03v5.315h7.563v1.734h-7.562v5.995h9.65v1.759z" style="fill:#6d6f71;fill-opacity:1;fill-rule:nonzero;stroke:none;stroke-width:2.69779" transform="translate(44.653 -135.857)"/><path d="m33.106 189.18 34.286-.051.038-5.787H33.107v-8.916h35.036v-5.94H20.799v32.689c-.038.216-.618 3.153-2.123 4.478l51.6.008v-5.754l-37.17-.049zM200.337 194.004c-1.346 2.14-3.202 3.702-5.568 4.686-2.374.99-5.946 1.484-10.713 1.484h-14.714V174.2h11.444c6.874 0 11.617.58 14.201 1.726 2.588 1.15 4.457 2.68 5.625 4.592 1.155 1.91 1.732 4.017 1.732 6.334 0 2.625-.671 5.013-2.007 7.152m-.094-23.425c-4.581-1.375-11.304-2.072-20.183-2.072h-22.996v32.73c-.07.397-.72 3.154-2.174 4.438l25.308.008c8.657 0 15.412-.885 20.277-2.657 4.864-1.778 8.476-4.139 10.86-7.087 2.383-2.944 3.573-6.186 3.573-9.72 0-3.734-1.3-6.926-3.893-9.586-2.609-2.65-6.194-4.672-10.772-6.054M314.02 168.5H302.75v26.947l-33.24-26.948h-8.584v32.765c-.11.56-.73 3.175-2.128 4.405l13.351.004V181.41l30.54 24.264h11.33v-32.667c.013-.09.542-3.14 2.093-4.503h-2.093zM230.789 168.541v32.603s-.532 3.146-2.1 4.527l14.755.003V172.95c.103-.537.664-3.17 2.075-4.408h-2.094zM107.74 189.523l6.713-9.267 6.86 9.267zm12.31-20.851h-2.438l-.017-.017-6.826-.021-27.229 37.038h12.653l7.44-10.123h22.015l4.162 5.682c.16.305 1.627 3.143.901 4.44h14.838l-24.555-32.516c-.162-.302-1.697-3.17-.944-4.481M-29.777 172.986c.013-.057.54-3.138 2.094-4.508H-42.46v32.81c-.121.64-.823 3.17-2.194 4.365l51.669.008v-5.843h-36.83ZM382.109 186.988v4.514s.523-3.132 2.096-4.514zM370.067 199.173c-2.13.74-2.74.77-4.31 1.082-1.425.294-2.466.529-4.72.577-6.088.149-8.014-.142-11.643-1.532-3.644-1.392-5.746-3.275-7.405-5.63-1.51-2.14-2.355-4.147-2.355-6.742 0-4.179 2.163-7.856 5.295-10.017 3.31-2.28 7.724-3.507 14.374-3.62 2.415-.034 4.986.113 7.71.323 2.72.219 5.936.553 7.627 1.015l7.333-5.105c-7.854-1.079-15.375-1.624-22.554-1.624-11.889 0-20.727 1.767-26.546 5.299-5.816 3.534-8.714 8.063-8.714 13.589 0 3.612 1.282 6.887 3.84 9.82 2.557 2.935 6.298 5.177 11.214 6.736 4.915 1.548 11.654 2.328 20.228 2.328 3.086 0 6.078-.089 8.97-.259 2.879-.178 7.443-.726 13.691-1.648v-16.778h-12.086z" style="fill:#ed1c24;fill-opacity:1;fill-rule:nonzero;stroke:none;stroke-width:2.69779" transform="translate(44.653 -135.857)"/><path d="M246.754 160.743c-.593-3.58-1.567-7.187-2.64-10.51a176.185 176.185 0 0 1-6.7 5.546c4.112 2.048 7.749 3.936 9.34 4.964M238.313 135.857s-2.02 7.025-3.499 10.397a66.814 66.814 0 0 0 7.1-2.142c-1.91-4.904-3.6-8.255-3.6-8.255" style="fill:#e31837;fill-opacity:1;fill-rule:nonzero;stroke:none;stroke-width:2.69779" transform="translate(44.653 -135.857)"/><path d="M234.813 146.253c-10.279 2.466-15.49.81-15.49.81s5.91 2.764 12.33 5.88c-1.923 3.815-3.879 7.365-5.346 10.058 2.298-.796 6.453-3.591 11.107-7.222a178.629 178.629 0 0 0 6.698-5.544c5.266-4.594 10.387-9.588 13.56-13.497-5.936 3.38-11.183 5.735-15.756 7.373-2.579.93-4.95 1.632-7.103 2.142" style="fill:#00a94f;fill-opacity:1;fill-rule:nonzero;stroke:none;stroke-width:2.69779" transform="translate(44.653 -135.857)"/></svg>