<svg xmlns="http://www.w3.org/2000/svg" width="435.37875mm" height="100mm" viewBox="0 0 435.37875 100"><path d="m4.938 165.406-6.493-4.246c-4.24 2.992-10.051 3.28-14.656.265 0 0-19.77-12.915-21.594-14.126-2.177-1.455-4.89-1.546-7.211-.037-2.314 1.506-21.675 14.163-21.675 14.163-4.608 3.015-10.41 2.727-14.66-.265l-6.482 4.246c-5.44 3.558-6.969 10.846-3.414 16.282 3.555 5.443 10.846 6.973 16.286 3.411l30.186-19.73c2.378-1.466 4.313-1.466 6.661-.007L-7.941 185.1c5.443 3.561 12.731 2.032 16.29-3.411 3.548-5.436 2.025-12.724-3.411-16.282" style="fill:#7bb242;fill-opacity:1;fill-rule:nonzero;stroke:none;stroke-width:3.35372" transform="translate(93.165 -105.01)"/><path d="M-43.649 128.866a4.345 4.345 0 0 1 2.288-.64c.821 0 1.59.224 2.253.62 1.238.74 14.384 9.45 14.384 9.45 4.36 2.848 9.964 2.27 13.667-1.056l7.462 4.89c4.625 3.015 5.922 9.216 2.9 13.84-3.024 4.622-9.219 5.923-13.843 2.898 0 0-21.437-13.978-23.52-15.172-2.083-1.2-4.544-1.251-6.684.024-1.737 1.03-23.62 15.148-23.62 15.148-4.581 2.767-10.823 1.724-13.844-2.897-3.022-4.625-1.724-10.826 2.897-13.841l7.469-4.89c3.7 3.327 9.3 3.904 13.666 1.057 0 0 13.227-8.643 14.525-9.431" style="fill:#528b3e;fill-opacity:1;fill-rule:nonzero;stroke:none;stroke-width:3.35372" transform="translate(93.165 -105.01)"/><path d="m-38.86 125.319 15.812 10.41c3.787 2.471 8.86 1.405 11.336-2.378 2.471-3.78 1.408-8.857-2.375-11.336l-24.888-16.282c-1.58-.962-3.367-.962-4.903-.013l-24.931 16.295c-3.79 2.479-4.853 7.556-2.381 11.336 2.481 3.783 7.549 4.85 11.335 2.378l16.041-10.417c.751-.496 1.536-.845 2.472-.845.935 0 1.737.349 2.481.852M-24.47 198.272l-12.935-21.159c-1.026-1.747-2.522-2.636-4.045-2.683-1.522.047-3.021.936-4.048 2.683l-12.935 21.159c-1.677 2.596-1.281 6.738 3.347 6.738h27.27c4.624 0 5.023-4.142 3.346-6.738M330.261 120.108v30.335h-12.395c1.583-1.067 3.384-4.578 3.384-8.378v-19.656h-39.752v7.401h27.756v12.174c0 4.538-1.023 7.298-1.979 8.459h-29.7v7.401h17.6v13.932h11.99v-13.932h23.096v4.93h-15.715v7.395h15.715v8.478h6.798c2.851 0 5.155-2.31 5.155-5.158v-53.38zm-30.636 69.724v-11.879h-11.993v13.351c0 2.72.842 4.89 2.499 6.43 1.646 1.535 3.743 2.32 6.228 2.32h45.704v-7.422h-39.815c-1.815 0-2.623-1.2-2.623-2.8M232.987 196.173c-6.338 0-10.658-5.04-10.658-11.53 0-6.483 4.32-10.943 10.658-10.943 5.91 0 10.665 4.46 10.665 10.943 0 6.49-4.756 11.53-10.665 11.53m-.288 6.771c11.674 0 22.044-7.345 22.044-18.006 0-10.81-10.37-17.869-22.044-17.869-11.668 0-21.467 7.204-21.467 17.869 0 10.661 9.8 18.006 21.467 18.006m-34.721-39.04h69.298v-7.781h-69.298zm62.53-11.53 3.457-6.631c-3.605-.285-9.366-1.583-14.551-3.887-5.762-2.592-9.797-7.348-10.233-11.668h21.038v-7.78h-55.182v7.78h20.75c-.577 4.176-4.182 8.499-8.794 11.091-5.181 2.881-10.95 4.035-15.413 4.612l3.457 6.482c4.323-.147 10.373-1.294 15.558-3.602 4.9-2.156 9.37-5.476 11.96-8.501 2.454 3.025 6.918 6.197 11.667 8.357 5.477 2.452 11.819 3.599 16.286 3.746M60.434 149.787c3.465 6.919 10.897 14.408 19.438 16.86l4.18-6.768c-10.454-3.733-17.708-13.543-17.708-26.367v-11.239H53.952v10.806c0 8.502-1.868 13.257-5.474 17.869-3.313 4.175-7.78 7.485-13.257 9.219l4.903 6.48c8.354-2.449 16.712-8.932 20.31-16.86m30.113-29.68v56.486h6.805a5.153 5.153 0 0 0 5.155-5.15v-51.336zM60.156 189.83v-14.472h-11.99v15.944c0 2.72.839 4.893 2.499 6.432 1.643 1.536 3.743 2.318 6.228 2.318h45.46v-7.422H62.781c-1.808 0-2.626-1.2-2.626-2.8M169.764 145.012h-9.585c.252-1.227.39-2.502.39-3.826 0-1.604-.178-3.126-.504-4.575h9.7zm-31.243 8.857c-5.903 0-10.658-5.332-10.658-12.972 0-7.78 4.755-12.818 10.658-12.818 6.05 0 10.953 5.038 10.953 12.818 0 7.64-4.903 12.972-10.953 12.972m31.243-33.711v9.035h-13.2c-4.001-5.095-10.611-8.032-18.043-8.032-12.104 0-22.332 8.213-22.332 20.025 0 11.962 10.228 19.595 22.332 19.595 7.58 0 14.314-3.166 18.288-8.364h12.955v13.291h6.802a5.156 5.156 0 0 0 5.154-5.155v-40.395zm-10.785 76.069c-6.054 0-10.662-4.897-10.662-11.386 0-6.627 4.608-11.094 10.662-11.094 5.909 0 10.664 4.467 10.664 11.094 0 6.49-4.755 11.386-10.664 11.386m0-29.392c-12.1 0-21.756 7.633-21.756 18.006 0 10.953 9.655 18.157 21.756 18.157 12.103 0 21.755-7.636 21.755-18.157 0-10.806-9.652-18.006-21.755-18.006" style="fill:#004712;fill-opacity:1;fill-rule:nonzero;stroke:none;stroke-width:3.35372" transform="translate(93.165 -105.01)"/></svg>