<svg xmlns="http://www.w3.org/2000/svg" width="471.72354" height="92.383179" viewBox="0 0 471.72354 92.383177"><defs><radialGradient id="a" cx="0" cy="0" r="1" fx="-0.050674401" fy="0.0271606" gradientTransform="matrix(44.55096 0 0 44.56297 446.077 19.074)" gradientUnits="userSpaceOnUse" spreadMethod="pad"><stop offset="0" style="stop-opacity:1;stop-color:#ef4130"/><stop offset="0.15782213" style="stop-opacity:1;stop-color:#ef4130"/><stop offset="0.6" style="stop-opacity:1;stop-color:#bf1e24"/><stop offset="1" style="stop-opacity:1;stop-color:#7a1214"/></radialGradient><radialGradient id="b" cx="0" cy="0" r="1" fx="0" fy="0" gradientTransform="matrix(43.46608 0 0 43.46606 449.496 17.174)" gradientUnits="userSpaceOnUse" spreadMethod="pad"><stop offset="0" style="stop-opacity:1;stop-color:#e7e8e9"/><stop offset="0.005618" style="stop-opacity:1;stop-color:#e7e8e9"/><stop offset="1" style="stop-opacity:1;stop-color:#8a9297"/></radialGradient></defs><path d="M421.454 17.75c-1.062 2.595-5.508 4.409-7.856 6.762-5.436 5.437-3.982 15.497 1.616 17.427 5.16 1.754.282-7.6 5.16-11.667 5.167-3.963 18.492 2.961 7.815 11.988-2.51 1.843-2.876 2.453-4.508 4.085-8.745 8.743 5.436 18.652 15.823 17.386 9.2-1.122 11.724-7.159 12.996-15.766 1.158-7.833-.406-10.572.817-16.268 3.91-10.786 16.527-1.604 18.31 3.632.035-.597.097-1.184.097-1.796C471.724 15.031 456.704 0 438.173 0c-10.61 0-20.052 4.945-26.19 12.636 7.082-4.42 11.675-.205 9.471 5.113" style="fill:url(#a);stroke:none;stroke-width:1.33333"/><path d="M452.004 21.5c3.209 2.304 7.058 2.468 8.606.313 1.555-2.149.207-5.769-3.002-8.07-3.206-2.327-7.072-2.48-8.611-.334-1.543 2.146-.193 5.776 3.007 8.091m1.313 10.197c-1.223 5.696.341 8.435-.817 16.268-1.272 8.607-3.796 14.644-12.996 15.766-10.387 1.266-24.568-8.643-15.823-17.386 1.632-1.632 1.997-2.242 4.508-4.085 10.677-9.027-2.648-15.95-7.815-11.988-4.878 4.067 0 13.421-5.16 11.667-5.598-1.93-7.052-11.99-1.616-17.427 2.348-2.353 6.794-4.167 7.856-6.763 2.204-5.318-2.39-9.533-9.47-5.113-4.584 5.728-7.34 12.992-7.34 20.897 0 18.522 15.009 33.54 33.529 33.54 17.932 0 32.52-14.064 33.453-31.744-1.782-5.236-14.398-14.418-18.31-3.632" style="fill:url(#b);stroke:none;stroke-width:1.33333"/><path d="M29.54 40.217c-7.114 0-12.742 1.426-16.724 4.25-3.55 2.477-5.336 5.64-5.336 9.389 0 3.526 1.786 6.572 5.336 9.012 3.966 2.78 9.6 4.18 16.723 4.18 7.021 0 12.624-1.4 16.676-4.18 3.562-2.44 5.369-5.485 5.369-9.012 0-3.75-1.807-6.912-5.37-9.389-4.058-2.824-9.662-4.25-16.675-4.25zm81.985 1.322v34.112h10.723V41.539Zm130.776.217V91.14h10.545V59.223h8.406V54.01h-8.406V41.756Zm-175.83.674v4.879h12.084l-.026.35C77.413 60.84 67.504 62.424 65.69 62.604v5.65c12.124-.13 17.345-7.708 19.59-14.088l.315-.851.297.851c2.234 6.38 7.473 13.958 19.59 14.088v-5.65c-1.817-.18-11.724-1.763-12.848-14.945l-.022-.35h12.213V42.43zm69.449 0v20.621c.015 3.172 2.498 5.826 5.678 6.016h43.882v-4.862h-39.218V57.65h37.119v-4.856h-37.12v-5.515h39.22V42.43zm64.203 0v4.754h10.434v.445c0 22.16-10.383 26.058-12.317 26.588v5.022c16.5 0 20.635-25.121 20.635-25.121h.006s4.125 25.12 20.629 25.12v-5.02c-1.93-.532-12.305-4.429-12.305-26.589v-.445h10.42V42.43zm72.65 0v5.309h16.098l-.228.459c-3.768 7.325-15.212 7.733-17.088 7.76v4.984c15.825-.074 22.562-5.045 25.412-9.239l.265-.386.26.386c2.842 4.194 9.584 9.165 25.399 9.239v-4.985c-1.86-.026-13.324-.434-17.067-7.76l-.24-.458h16.113V42.43zm63.004 0v4.764h25.766v17.582h-28.332v4.691h15.54v5.96h-8.37v9.99h.039c.11 3.067 2.467 5.466 5.492 5.722h43.662v-4.771h-38.87v-8.696h8.321v-8.205h14.846v-4.691h-2.078V47.918c-.25-2.997-2.715-5.368-5.746-5.488zm43.254.07v29.043h-11.426v4.785h11.426v3.346h10.543V42.5ZM29.54 44.606c3.624 0 6.561.917 8.73 2.72 2.04 1.655 3.063 3.863 3.063 6.53 0 2.573-1.022 4.672-3.07 6.24-2.136 1.688-5.066 2.56-8.723 2.56-3.69 0-6.656-.872-8.79-2.56-1.99-1.581-3.009-3.678-3.009-6.24 0-2.667 1.019-4.855 3.008-6.53 2.116-1.803 5.096-2.72 8.791-2.72zm239.469 20.168v4.855h56.447v-4.855ZM0 70.776v4.789h11.127v15.574H21.43V75.565h15.7v15.574h10.106V75.565h11.19v-4.79zm297.232 1.039c-7.456 0-13.36 1.107-17.56 3.295-3.688 1.901-5.545 4.315-5.545 7.156 0 2.71 1.857 5.01 5.545 6.89 4.195 2.151 10.09 3.227 17.56 3.227 7.37 0 13.27-1.076 17.5-3.226 3.726-1.88 5.614-4.18 5.614-6.891 0-2.841-1.904-5.255-5.614-7.156-4.244-2.188-10.145-3.295-17.5-3.295zm-225.029 1.22v12.579a5.948 5.948 0 0 0 5.281 5.525h44.899v-4.873H82.334v-13.23Zm59.104 1.497v4.855h24.072V91.14h10.611V79.387h23.795v-4.855zm165.925.947c3.432 0 6.219.65 8.29 1.969 1.969 1.225 2.94 2.84 2.94 4.818 0 1.901-.97 3.448-2.952 4.617-2.02 1.224-4.81 1.858-8.278 1.858-3.552 0-6.288-.61-8.336-1.88-1.904-1.154-2.898-2.694-2.898-4.595 0-1.977.994-3.593 2.898-4.818 2.022-1.319 4.834-1.97 8.336-1.97z" style="fill:#bf1e24;fill-opacity:1;fill-rule:nonzero;stroke:none;stroke-width:1.33333"/></svg>