<svg xmlns="http://www.w3.org/2000/svg" xml:space="preserve" width="1000px" height="280.076px" x="0px" y="0px" viewBox="0 0 1000 280.076"><path fill="#005D94" d="M200.567 156.52c.256-2.923.394-5.879.394-8.869 0-55.494-44.986-100.481-100.48-100.481C44.987 47.169 0 92.156 0 147.65c0 55.494 44.987 100.48 100.48 100.48 32.84 0 61.998-15.756 80.334-40.119l-24.271-26.903c-11.07 19.716-31.605 32.95-55.777 32.95-36.383 0-65.877-29.964-65.877-66.927 0-36.961 29.494-66.926 65.877-66.926 29.012 0 52.786 19.062 61.235 45.524H90.087s-17.215 0-17.215 18.816c0 7.169 1.182 11.975 1.182 11.975h126.513zM359.211 184.843c14.86-7.242 25.102-22.491 25.102-40.136 0-28.771-26.468-44.633-53.095-44.633H250.95v180.002h88.448c28.463 0 51.995-17.218 51.995-48.446 0-25.837-13.709-41.83-32.182-46.787zm-70.496-56.621h35.439c12.367 0 22.394 7.931 22.394 22.394 0 10.264-5.077 22.394-19.22 22.394h-38.613v-44.788zm41.194 123.272h-41.194v-49.562h37.808c13.194 0 23.891 8.996 23.891 24.912-.001 11.3-7.232 24.65-20.505 24.65zM460.358 172.385V127.6h78.919l4.761-27.913H423.502v180.389h119.743v-29.28h-82.887v-49.02H532.4v-29.391zM864.94 100.23H714.952v29.857h55.775c-8.183 6.065-8.189 18.194-8.189 18.194v131.794h38.722v-130.86c0-12.48 11.08-19.128 15.94-19.128h38.876l8.864-29.857z"/><path fill="#F29600" d="M935.641 0c-35.543 0-64.356 28.814-64.356 64.359 0 35.543 28.813 64.358 64.356 64.358 35.544 0 64.359-28.814 64.359-64.358C1000 28.814 971.185 0 935.641 0zm0 95.753c-17.338 0-31.394-14.056-31.394-31.394 0-17.339 14.056-31.395 31.394-31.395s31.395 14.056 31.395 31.395c-.001 17.338-14.057 31.394-31.395 31.394z"/><path fill="#005D94" d="M689.397 101.949c-.833-.555-28.637-6.857-47.817-6.31-23.199.663-67.053 9.215-68.16 53.828 0 0-3.457 30.562 34.402 45.844 0 0 12.09 4.104 26.002 8.21 0 0 24.214 6.387 22.617 22.581 0 0 2.216 22.442-36.506 23.297 0 0-18.661.078-28.303-4.198 0 0-6.065-2.488-8.708.777 0 0-4.781 3.713-7.666 11.818-2.645 7.31-4.62 13.841-4.62 13.841s-.467.778.778 1.399c.667.334 20.726 4.055 23.443 4.433 2.717.379 22.313 2.531 30.828 2.565 19.518.082 73.245-6.998 73.245-56.916 0-21.927-11.663-37.478-32.19-45.564 0 0-14.15-4.666-30.791-10.264 0 0-19.749-4.354-19.903-19.283 0 0 .31-10.574 6.998-15.55 0 0 5.753-7.464 25.192-7.31 0 0 7.152-.466 19.749 1.711 0 0 5.443 2.021 9.642-2.333 0 0 3.499-3.305 6.882-9.719 0 0 5.132-10.643 5.286-12.247.072-.737-.021-.358-.4-.61z"/></svg>