<svg xmlns="http://www.w3.org/2000/svg" xml:space="preserve" width="393.4848" height="100" viewBox="0 0 393.4848 100"><path d="M12.734 347.83h-1.926v9.242h1.926zM22.328 347.83H20.71l-4.262 5.923v-5.922H14.52v9.241h1.765l4.115-5.651v5.651h1.927zM27.765 347.708h-.835l-3.735 9.364h2.092l2.04-5.273 1.932 5.273h2.07zM37.898 347.83h-5.69v9.242h5.612v-1.694h-3.686v-1.938h3.518v-1.695h-3.518v-2.22h3.764zM44.545 354.671c-1.118.598-1.784.828-2.442.828-.687 0-1.13-.297-1.13-.76 0-1.395 3.925-1 3.925-4.226 0-1.775-1.244-2.805-2.963-2.805-1.346 0-2.015.42-2.785.893v1.992c1.11-.88 1.788-1.191 2.636-1.191.736 0 1.135.31 1.135.854 0 1.516-3.928.96-3.928 4.28 0 1.6 1.153 2.656 2.942 2.656.86 0 1.636-.215 2.61-.716zM53.166 355.378H50.37v-7.547h-1.92v7.547h-2.799v1.695h7.514zM60.958 357.072h1.677v-9.241H60.71v5.772l-2.084-2.9h-.293l-2.08 2.9v-5.772h-1.926v9.241H56l2.476-3.428zM70.048 347.83h-5.685v9.242h5.61v-1.694h-3.688v-1.938h3.518v-1.695h-3.518v-2.22h3.763zM79.338 347.83h-1.62l-4.264 5.923v-5.922H71.53v9.241h1.764l4.122-5.651v5.651h1.923zM88.033 355.378h-2.795v-7.547h-1.92v7.547h-2.796v1.695h7.511zM92.895 354.89c0 .447-.296.772-.714.772s-.714-.298-.714-.704c0-.338.286-.842.656-1.233.556.39.772.717.772 1.166m-1.52-3.321c-.54-.419-.789-.814-.789-1.247 0-.596.44-1.085.975-1.085.35 0 .812.204 1.187.515zm5.174 1.056c-.452-1.246-.939-2.113-1.553-2.764l1.553-2.031h-2.344l-.565.73c-.768-.582-1.548-.853-2.425-.853-1.397 0-2.44 1.043-2.44 2.439 0 1.056.543 1.884 1.73 2.615-.44.746-.698 1.288-.698 2.047 0 1.382.994 2.383 2.363 2.383 1.311 0 2.231-.906 2.231-2.193 0-.895-.499-1.707-1.44-2.373l1.05-1.449c.355.42.647.922.883 1.449zM102.859 354.9c-1.118.597-1.786.828-2.446.828-.685 0-1.13-.3-1.13-.76 0-1.396 3.927-1.002 3.927-4.227 0-1.777-1.244-2.806-2.967-2.806-1.345 0-2.01.42-2.782.895v1.991c1.11-.881 1.788-1.191 2.639-1.191.734 0 1.132.31 1.132.852 0 1.518-3.926.963-3.926 4.282 0 1.599 1.151 2.657 2.937 2.657.861 0 1.641-.217 2.616-.718zM110.22 348.058h-5.691v9.242h5.613v-1.694h-3.688v-1.938h3.522v-1.695h-3.522v-2.222h3.766zM118.884 348.857c-1.072-.664-1.89-.923-3.034-.923-2.993 0-4.489 2.33-4.489 4.717 0 2.466 1.683 4.77 4.639 4.77 1.073 0 2.034-.272 2.793-.813v-2.06c-.848.569-1.706.949-2.656.949-1.644 0-2.8-1.165-2.8-2.805 0-1.653 1.145-2.834 2.753-2.834 1.01 0 1.685.38 2.794 1.017zM128.054 357.3v-5.246c0-3.063-1.742-4.119-3.86-4.119-2.235 0-3.854 1.247-3.854 4.107v5.258h1.925v-5.314c0-1.326.8-2.128 1.912-2.128 1.017 0 1.957.639 1.957 2.292v5.15zM131.64 353.505h1.019c.532 0 1.05.27 1.05 1.057 0 .692-.376 1.044-1.095 1.044h-.974zm1.53 3.795c1.583 0 2.521-1.275 2.521-2.657 0-1.016-.443-1.775-1.33-2.261.799-.476 1.033-1.616 2.12-4.324h-2.12c-.822 1.977-1.128 3.753-2.167 3.753h-.554v-3.753h-1.922v9.242zM139.364 348.058h-1.923v9.242h1.923zM148.105 355.606h-2.793v-7.548h-1.923v7.548h-2.792v1.694h7.508zM151.258 348.058h-1.924v9.242h1.924zM158.748 348.058h-5.691v9.242h5.611v-1.694h-3.69v-1.938h3.52v-1.695h-3.52v-2.222h3.77zM165.397 354.9c-1.124.597-1.788.828-2.443.828-.694 0-1.132-.3-1.132-.76 0-1.396 3.926-1.002 3.926-4.227 0-1.777-1.244-2.806-2.964-2.806-1.345 0-2.013.42-2.782.895v1.991c1.106-.881 1.785-1.191 2.633-1.191.737 0 1.135.31 1.135.852 0 1.518-3.928.963-3.928 4.282 0 1.599 1.153 2.657 2.942 2.657.86 0 1.642-.217 2.613-.718zM177.388 348.857c-1.078-.664-1.891-.923-3.035-.923-2.994 0-4.49 2.33-4.49 4.717 0 2.466 1.686 4.77 4.639 4.77 1.072 0 2.038-.272 2.794-.813v-2.06c-.849.569-1.707.949-2.658.949-1.64 0-2.794-1.165-2.794-2.805 0-1.653 1.143-2.834 2.75-2.834 1.006 0 1.685.38 2.794 1.017zM183.008 355.497c-1.473 0-2.45-1.124-2.45-2.819 0-1.695.977-2.82 2.45-2.82 1.458 0 2.428 1.126 2.428 2.82 0 1.695-.97 2.82-2.428 2.82m0-7.563c-2.83 0-4.424 2.386-4.424 4.743 0 2.237 1.513 4.743 4.424 4.743 2.905 0 4.41-2.521 4.41-4.743 0-2.37-1.642-4.743-4.41-4.743M189.78 349.113c0-.65-.443-1.178-.987-1.178-.542 0-.985.529-.985 1.178 0 .652.443 1.18.985 1.18.544 0 .986-.528.986-1.18M190.895 346.186c.33.354.582 1.098.509 1.749-.394.19-.575.488-.575.99 0 .623.396 1.07.928 1.07.664 0 1.132-.637 1.132-1.545 0-1.355-.884-2.547-1.994-2.683zM200.14 348.058h-5.885v9.242h1.924v-7.549h3.96zM206.769 355.606h-2.796v-7.548h-1.923v7.548h-2.794v1.694h7.513zM209.842 349.751h1.253c1.938 0 2.514 1.571 2.514 2.928 0 1.585-.71 2.926-2.534 2.926h-1.233zm1.483 7.549c2.817 0 4.264-2.1 4.264-4.635 0-2.657-1.4-4.607-4.478-4.607h-3.193v9.242z" style="fill:#9ba1a6;fill-opacity:1;fill-rule:nonzero;stroke:none;stroke-width:.64296" transform="matrix(1.33333 0 0 -1.33333 106.032 545.322)"/><path d="M60.772 363.654h4.265v31.304h-4.265zM51.873 379.94c-.785-1.28-1.835-1.922-3.147-1.922-1.332 0-2.382.643-3.145 1.923-.686 1.16-1.033 2.575-1.033 4.245 0 1.69.347 3.13 1.033 4.316.784 1.306 1.835 1.958 3.145 1.958 1.312 0 2.362-.652 3.147-1.958.708-1.185 1.062-2.625 1.062-4.316 0-1.67-.354-3.085-1.062-4.245m-3.147 15.016c-2.702 0-4.842-1.123-6.415-3.371-1.412-2.008-2.12-4.475-2.12-7.4 0-2.878.708-5.321 2.12-7.33 1.573-2.223 3.713-3.334 6.415-3.334 2.663 0 4.792 1.11 6.39 3.335 1.429 2.008 2.143 4.451 2.143 7.329 0 2.925-.714 5.392-2.144 7.4-1.597 2.248-3.726 3.371-6.389 3.371M97.866 372.252h10.714v-8.415h4.266v8.415h10.745v4.534H97.866ZM102.977 379.142h17.655v4.173H105.33v1.705h15.302v3.916H105.33v1.669h15.302v4.353H100.82v-13.094c0-1.015.181-1.73.548-2.14.32-.363.857-.558 1.609-.582M153.146 394.957h-4.269v-30.975h4.269v15.778h3.448v4.534h-3.448zM140.768 379.36c-1.051 2.49-1.613 6.178-1.696 11.065h5.567v4.533h-15.524v-4.533h5.6c-.102-4.862-.675-8.55-1.725-11.064-.968-2.274-2.382-3.64-4.239-4.099v-5.005c1.716.312 3.283 1.1 4.693 2.357 1.513 1.354 2.651 3.12 3.416 5.296.75-2.226 1.82-3.99 3.21-5.296 1.374-1.28 3.03-2.068 4.969-2.357v5.04c-1.883.437-3.302 1.79-4.271 4.064M174.085 387.378c.884-1.162 2.624-2.031 5.209-2.613 1.853-.434 4.111-.701 6.778-.797v4.316c-2.507.097-4.493.35-5.964.762-1.634.435-2.653 1.04-3.056 1.813h9.02v4.098h-23.974v-4.098h8.959c-.403-.823-1.412-1.452-3.024-1.886-1.453-.363-3.432-.592-5.935-.689v-4.316c2.585.096 4.817.363 6.691.797 2.623.582 4.387 1.451 5.296 2.613M177.324 368.152c-.908-1.039-1.99-1.559-3.239-1.559-1.269 0-2.37.52-3.298 1.56-.95 1.038-1.425 2.309-1.425 3.809 0 1.524.475 2.804 1.425 3.845.929 1.014 2.03 1.522 3.298 1.522 1.25 0 2.33-.508 3.24-1.522.946-1.04 1.42-2.321 1.42-3.845 0-1.5-.474-2.77-1.42-3.81m-16.102 9.432h5.844c-1.348-1.6-2.036-3.483-2.036-5.659 0-2.828.944-5.187 2.818-7.073 1.776-1.766 3.876-2.648 6.296-2.648 2.343 0 4.399.882 6.175 2.648 1.896 1.886 2.845 4.245 2.845 7.073 0 2.176-.691 4.06-2.053 5.659h5.837v4.534h-25.726zM197.095 368.66v7.364h-4.266v-9.178c0-1.014.182-1.74.545-2.175.322-.363.847-.545 1.572-.545h20.643v4.534z" style="fill:#0055b5;fill-opacity:1;fill-rule:nonzero;stroke:none;stroke-width:.64296" transform="matrix(1.33333 0 0 -1.33333 106.032 545.322)"/><path d="M199.153 373.048h4.238v5.55h5.604v4.537h-1.972v3.372h4.088V372.07h4.266v22.886h-4.266v-3.917h-4.088v3.917h-15.312v-4.496h11.045v-7.326H190.53v-4.536h8.622zM92.24 383.024h-2.663v7.4h2.663v4.534H70.63v-4.533H85.4v-7.4H77.59v5.419h-4.176v-5.42h-2.783v-4.534H92.24zM69.415 368.044H93.52v4.534H69.415ZM31.187 363.982h4.087v30.976h-4.087ZM25.68 385.672h-2.334c.218 1.777.339 3.69.339 5.766v3.52h-13.52l2.034-4.533h7.335c0-.75-.014-1.476-.06-2.177a48.501 48.501 0 0 0-.152-2.068h-8.014v-4.425h7.046c-.604-1.983-1.482-3.531-2.63-4.642-1.23-1.138-2.745-1.78-4.537-1.923v-4.933c3.264.387 5.928 1.813 7.99 4.28 1.413 1.695 2.48 3.859 3.232 6.456h3.27v-17.011h3.965v30.975H25.68z" style="fill:#0055b5;fill-opacity:1;fill-rule:nonzero;stroke:none;stroke-width:.64296" transform="matrix(1.33333 0 0 -1.33333 106.032 545.322)"/><path d="m-68.037 390.304-7.568-2.15a36.765 36.765 0 0 1-1.93-4.639l3.812-6.84a31.97 31.97 0 0 0 5.686 13.629M-78.925 378.122a37.327 37.327 0 0 1-.6-6.632c0-2.233.208-4.428.587-6.562l3.683 6.607zM-10.316 376.607l3.823 6.854a38.158 38.158 0 0 1-1.92 4.64l-7.557 2.146a32.04 32.04 0 0 0 5.654-13.64M-73.735 366.376l-3.821-6.852a36.752 36.752 0 0 1 1.922-4.64l7.558-2.148a31.942 31.942 0 0 0-5.66 13.64M-23.214 397.503l-2.15 7.572a37.385 37.385 0 0 1-4.637 1.93l-6.84-3.819a31.864 31.864 0 0 0 13.627-5.683M-47.14 403.202l-6.855 3.82a37.78 37.78 0 0 1-4.638-1.92l-2.147-7.558a31.967 31.967 0 0 0 13.64 5.658" style="fill:#2b93dd;fill-opacity:1;fill-rule:nonzero;stroke:none;stroke-width:.64164" transform="matrix(1.33333 0 0 -1.33333 106.032 545.322)"/><path d="M-11.266 392.903a37.747 37.747 0 0 1-9.29 9.307l2.06-7.252z" style="fill:#ee2e3f;fill-opacity:1;fill-rule:nonzero;stroke:none;stroke-width:.64164" transform="matrix(1.33333 0 0 -1.33333 106.032 545.322)"/><path d="M-72.79 350.08a37.82 37.82 0 0 1 9.296-9.308l-2.062 7.253zM-63.434 402.252a37.738 37.738 0 0 1-9.309-9.292l7.254 2.061zM-35.396 408.391c-2.154.389-4.365.6-6.63.6a37.69 37.69 0 0 1-6.563-.585l6.608-3.687zM-20.613 340.731a37.895 37.895 0 0 1 9.307 9.292l-7.25-2.06zM-16.013 352.679l7.571 2.151a37.494 37.494 0 0 1 1.928 4.639l-3.817 6.84a31.913 31.913 0 0 0-5.682-13.63M-60.835 345.48l2.148-7.571a37.536 37.536 0 0 1 4.638-1.928l6.84 3.815a31.882 31.882 0 0 0-13.626 5.685M-36.907 339.783l6.851-3.822a37.131 37.131 0 0 1 4.642 1.921l2.145 7.556a31.97 31.97 0 0 0-13.638-5.655M-5.122 364.864c.382 2.15.598 4.364.598 6.626 0 2.24-.212 4.43-.587 6.564l-3.682-6.606zM-48.654 334.59a37.56 37.56 0 0 1 6.628-.598c2.244 0 4.43.207 6.564.587l-6.61 3.685zM-54.365 374.705c1.568-.933 3.623-1.41 6.105-1.41h4.481v3.972h-3.504c-1.228 0-2.25.14-3.044.419-.816.29-1.563.788-2.226 1.483-1.121 1.179-1.69 2.613-1.69 4.252 0 1.743.59 3.229 1.76 4.42a5.585 5.585 0 0 0 2.116 1.374c.765.274 1.718.412 2.831.412h3.757v3.972h-4.26c-1.316 0-2.508-.113-3.542-.349a9.095 9.095 0 0 1-4.468-2.382 10.004 10.004 0 0 1-2.08-2.94 10.52 10.52 0 0 1-1.05-4.55c0-1.187.214-2.36.628-3.498.808-2.24 2.22-3.982 4.186-5.175" style="fill:#2b93dd;fill-opacity:1;fill-rule:nonzero;stroke:none;stroke-width:.64164" transform="matrix(1.33333 0 0 -1.33333 106.032 545.322)"/><path d="m-34.573 393.6 5.829-16.332h-7.168l2.302 8.06h-4.132l-3.973-12.034h18.588l-7.17 20.305z" style="fill:#ee2e3f;fill-opacity:1;fill-rule:nonzero;stroke:none;stroke-width:.64164" transform="matrix(1.33333 0 0 -1.33333 106.032 545.322)"/><path d="M-44.938 368.213a5.36 5.36 0 0 1-2.1 1.128c-.826.23-1.934.346-3.288.346h-8.07v-3.972h7.488c1.025 0 1.758-.145 2.244-.44.398-.242.874-.73.874-1.683 0-.713-.295-1.304-.845-1.71-.446-.32-1.182-.462-2.322-.462h-7.438v-12.038h4.713v8.066h3.83c1.542 0 2.797.219 3.73.65.906.426 1.681 1.138 2.294 2.124a6.089 6.089 0 0 1 .965 3.31c0 .874-.184 1.747-.552 2.583a5.904 5.904 0 0 1-1.523 2.098M-39.734 365.715h14.623v3.971h-14.623zM-39.733 349.382h14.622v3.974h-9.908v4.092h9.908v3.972h-14.622z" style="fill:#2b93dd;fill-opacity:1;fill-rule:nonzero;stroke:none;stroke-width:.64164" transform="matrix(1.33333 0 0 -1.33333 106.032 545.322)"/></svg>