<svg xmlns="http://www.w3.org/2000/svg" width="543.43909mm" height="100mm" viewBox="0 0 543.43909 100"><defs><clipPath id="a"><path d="M282 173h14v8h-14zm0 0"/></clipPath><clipPath id="b"><path d="M286.176 177.512c-2.367.297-3.453 1.062-4.153 1.992 1.164.398 2.5.629 3.961.644h.32c5.2-.054 8.798-2.828 8.798-6.234 0-.305-.032-.605-.086-.898-.176 4.043-6.246 4.172-8.84 4.496"/></clipPath><linearGradient id="c" x1="-0.092530303" x2="0.99185503" y1="0" y2="0" gradientTransform="matrix(12.05753 0 0 12.05753 283.14 171.952)" gradientUnits="userSpaceOnUse"><stop offset="0" style="stop-color:#0075c2;stop-opacity:1"/><stop offset="0.125" style="stop-color:#0075c2;stop-opacity:1"/><stop offset="0.1875" style="stop-color:#0075c2;stop-opacity:1"/><stop offset="0.203125" style="stop-color:#0075c2;stop-opacity:1"/><stop offset="0.210938" style="stop-color:#0076c2;stop-opacity:1"/><stop offset="0.21875" style="stop-color:#0076c3;stop-opacity:1"/><stop offset="0.222656" style="stop-color:#0076c3;stop-opacity:1"/><stop offset="0.226563" style="stop-color:#0077c3;stop-opacity:1"/><stop offset="0.234375" style="stop-color:#0077c3;stop-opacity:1"/><stop offset="0.242188" style="stop-color:#0077c4;stop-opacity:1"/><stop offset="0.25" style="stop-color:#0078c4;stop-opacity:1"/><stop offset="0.257813" style="stop-color:#0078c5;stop-opacity:1"/><stop offset="0.265625" style="stop-color:#0079c5;stop-opacity:1"/><stop offset="0.273438" style="stop-color:#0079c6;stop-opacity:1"/><stop offset="0.28125" style="stop-color:#007ac6;stop-opacity:1"/><stop offset="0.285156" style="stop-color:#007ac7;stop-opacity:1"/><stop offset="0.289063" style="stop-color:#007bc7;stop-opacity:1"/><stop offset="0.296875" style="stop-color:#007bc7;stop-opacity:1"/><stop offset="0.304688" style="stop-color:#007cc8;stop-opacity:1"/><stop offset="0.308594" style="stop-color:#007cc8;stop-opacity:1"/><stop offset="0.3125" style="stop-color:#007dc9;stop-opacity:1"/><stop offset="0.320313" style="stop-color:#007dc9;stop-opacity:1"/><stop offset="0.328125" style="stop-color:#007eca;stop-opacity:1"/><stop offset="0.332031" style="stop-color:#007fca;stop-opacity:1"/><stop offset="0.335938" style="stop-color:#007fcb;stop-opacity:1"/><stop offset="0.34375" style="stop-color:#007fcb;stop-opacity:1"/><stop offset="0.347656" style="stop-color:#0080cb;stop-opacity:1"/><stop offset="0.351563" style="stop-color:#0081cc;stop-opacity:1"/><stop offset="0.355469" style="stop-color:#0081cc;stop-opacity:1"/><stop offset="0.359375" style="stop-color:#0081cd;stop-opacity:1"/><stop offset="0.367188" style="stop-color:#0082cd;stop-opacity:1"/><stop offset="0.375" style="stop-color:#0083ce;stop-opacity:1"/><stop offset="0.378906" style="stop-color:#0083ce;stop-opacity:1"/><stop offset="0.382813" style="stop-color:#0084cf;stop-opacity:1"/><stop offset="0.390625" style="stop-color:#0084cf;stop-opacity:1"/><stop offset="0.398438" style="stop-color:#0085d0;stop-opacity:1"/><stop offset="0.40625" style="stop-color:#0086d1;stop-opacity:1"/><stop offset="0.414063" style="stop-color:#0087d2;stop-opacity:1"/><stop offset="0.417969" style="stop-color:#0087d2;stop-opacity:1"/><stop offset="0.421875" style="stop-color:#0088d3;stop-opacity:1"/><stop offset="0.425781" style="stop-color:#0088d3;stop-opacity:1"/><stop offset="0.429688" style="stop-color:#0089d3;stop-opacity:1"/><stop offset="0.433594" style="stop-color:#0089d4;stop-opacity:1"/><stop offset="0.4375" style="stop-color:#008ad4;stop-opacity:1"/><stop offset="0.445313" style="stop-color:#008ad5;stop-opacity:1"/><stop offset="0.449219" style="stop-color:#008bd5;stop-opacity:1"/><stop offset="0.453125" style="stop-color:#008cd6;stop-opacity:1"/><stop offset="0.457031" style="stop-color:#008cd6;stop-opacity:1"/><stop offset="0.460938" style="stop-color:#008dd6;stop-opacity:1"/><stop offset="0.46875" style="stop-color:#008dd6;stop-opacity:1"/><stop offset="0.472656" style="stop-color:#008ed4;stop-opacity:1"/><stop offset="0.476563" style="stop-color:#008ed4;stop-opacity:1"/><stop offset="0.480469" style="stop-color:#008fd3;stop-opacity:1"/><stop offset="0.484375" style="stop-color:#008fd2;stop-opacity:1"/><stop offset="0.488281" style="stop-color:#008fd2;stop-opacity:1"/><stop offset="0.492188" style="stop-color:#0090d2;stop-opacity:1"/><stop offset="0.496094" style="stop-color:#0090d1;stop-opacity:1"/><stop offset="0.5" style="stop-color:#0091d0;stop-opacity:1"/><stop offset="0.503906" style="stop-color:#0091cf;stop-opacity:1"/><stop offset="0.507813" style="stop-color:#0091cf;stop-opacity:1"/><stop offset="0.515625" style="stop-color:#0092ce;stop-opacity:1"/><stop offset="0.519531" style="stop-color:#0092cd;stop-opacity:1"/><stop offset="0.523438" style="stop-color:#0093cc;stop-opacity:1"/><stop offset="0.527344" style="stop-color:#0093cc;stop-opacity:1"/><stop offset="0.53125" style="stop-color:#0094cb;stop-opacity:1"/><stop offset="0.535156" style="stop-color:#0094ca;stop-opacity:1"/><stop offset="0.539063" style="stop-color:#0095c9;stop-opacity:1"/><stop offset="0.542969" style="stop-color:#0095c9;stop-opacity:1"/><stop offset="0.546875" style="stop-color:#0095c8;stop-opacity:1"/><stop offset="0.550781" style="stop-color:#0096c7;stop-opacity:1"/><stop offset="0.554688" style="stop-color:#0097c7;stop-opacity:1"/><stop offset="0.558594" style="stop-color:#0097c6;stop-opacity:1"/><stop offset="0.5625" style="stop-color:#0097c6;stop-opacity:1"/><stop offset="0.566406" style="stop-color:#0098c5;stop-opacity:1"/><stop offset="0.570313" style="stop-color:#0098c4;stop-opacity:1"/><stop offset="0.574219" style="stop-color:#0098c4;stop-opacity:1"/><stop offset="0.578125" style="stop-color:#0099c3;stop-opacity:1"/><stop offset="0.582031" style="stop-color:#0099c2;stop-opacity:1"/><stop offset="0.585937" style="stop-color:#009ac1;stop-opacity:1"/><stop offset="0.589844" style="stop-color:#009ac1;stop-opacity:1"/><stop offset="0.59375" style="stop-color:#009ac0;stop-opacity:1"/><stop offset="0.597656" style="stop-color:#009bbf;stop-opacity:1"/><stop offset="0.601563" style="stop-color:#009bbe;stop-opacity:1"/><stop offset="0.605469" style="stop-color:#009bbd;stop-opacity:1"/><stop offset="0.609375" style="stop-color:#009cbd;stop-opacity:1"/><stop offset="0.613281" style="stop-color:#009cbc;stop-opacity:1"/><stop offset="0.617188" style="stop-color:#009dbb;stop-opacity:1"/><stop offset="0.621094" style="stop-color:#009dba;stop-opacity:1"/><stop offset="0.625" style="stop-color:#009dba;stop-opacity:1"/><stop offset="0.628906" style="stop-color:#009eb9;stop-opacity:1"/><stop offset="0.632813" style="stop-color:#009eb8;stop-opacity:1"/><stop offset="0.636719" style="stop-color:#009eb7;stop-opacity:1"/><stop offset="0.640625" style="stop-color:#009fb7;stop-opacity:1"/><stop offset="0.644531" style="stop-color:#009fb6;stop-opacity:1"/><stop offset="0.648437" style="stop-color:#00a0b5;stop-opacity:1"/><stop offset="0.652344" style="stop-color:#00a0b4;stop-opacity:1"/><stop offset="0.65625" style="stop-color:#00a0b3;stop-opacity:1"/><stop offset="0.660156" style="stop-color:#00a1b2;stop-opacity:1"/><stop offset="0.664063" style="stop-color:#00a1b1;stop-opacity:1"/><stop offset="0.667969" style="stop-color:#00a1b0;stop-opacity:1"/><stop offset="0.671875" style="stop-color:#00a2b0;stop-opacity:1"/><stop offset="0.675781" style="stop-color:#00a2af;stop-opacity:1"/><stop offset="0.679688" style="stop-color:#00a3ae;stop-opacity:1"/><stop offset="0.683594" style="stop-color:#00a3ad;stop-opacity:1"/><stop offset="0.6875" style="stop-color:#00a4ac;stop-opacity:1"/><stop offset="0.691406" style="stop-color:#00a4ac;stop-opacity:1"/><stop offset="0.695313" style="stop-color:#00a4ab;stop-opacity:1"/><stop offset="0.699219" style="stop-color:#00a5aa;stop-opacity:1"/><stop offset="0.703125" style="stop-color:#00a5a8;stop-opacity:1"/><stop offset="0.707031" style="stop-color:#00a5a8;stop-opacity:1"/><stop offset="0.710937" style="stop-color:#00a6a7;stop-opacity:1"/><stop offset="0.714844" style="stop-color:#00a6a6;stop-opacity:1"/><stop offset="0.71875" style="stop-color:#00a7a5;stop-opacity:1"/><stop offset="0.722656" style="stop-color:#00a7a4;stop-opacity:1"/><stop offset="0.726563" style="stop-color:#00a7a3;stop-opacity:1"/><stop offset="0.730469" style="stop-color:#00a8a2;stop-opacity:1"/><stop offset="0.734375" style="stop-color:#00a8a1;stop-opacity:1"/><stop offset="0.738281" style="stop-color:#00a8a0;stop-opacity:1"/><stop offset="0.742188" style="stop-color:#00a9a0;stop-opacity:1"/><stop offset="0.746094" style="stop-color:#00a99e;stop-opacity:1"/><stop offset="0.75" style="stop-color:#00aa9d;stop-opacity:1"/><stop offset="0.753906" style="stop-color:#00aa9c;stop-opacity:1"/><stop offset="0.757813" style="stop-color:#00aa9c;stop-opacity:1"/><stop offset="0.761719" style="stop-color:#00ab9b;stop-opacity:1"/><stop offset="0.765625" style="stop-color:#00ab99;stop-opacity:1"/><stop offset="0.769531" style="stop-color:#00ab99;stop-opacity:1"/><stop offset="0.773437" style="stop-color:#00ac98;stop-opacity:1"/><stop offset="0.777344" style="stop-color:#00ac96;stop-opacity:1"/><stop offset="0.78125" style="stop-color:#00ac95;stop-opacity:1"/><stop offset="0.785156" style="stop-color:#00ac93;stop-opacity:1"/><stop offset="0.789063" style="stop-color:#00ac92;stop-opacity:1"/><stop offset="0.792969" style="stop-color:#00ad90;stop-opacity:1"/><stop offset="0.796875" style="stop-color:#00ad8f;stop-opacity:1"/><stop offset="0.800781" style="stop-color:#00ad8d;stop-opacity:1"/><stop offset="0.804688" style="stop-color:#00ad8b;stop-opacity:1"/><stop offset="0.808594" style="stop-color:#00ad8a;stop-opacity:1"/><stop offset="0.8125" style="stop-color:#00ae88;stop-opacity:1"/><stop offset="0.816406" style="stop-color:#00ae87;stop-opacity:1"/><stop offset="0.820313" style="stop-color:#00ae85;stop-opacity:1"/><stop offset="0.824219" style="stop-color:#00ae84;stop-opacity:1"/><stop offset="0.828125" style="stop-color:#00af82;stop-opacity:1"/><stop offset="0.832031" style="stop-color:#02af80;stop-opacity:1"/><stop offset="0.835937" style="stop-color:#03af7f;stop-opacity:1"/><stop offset="0.839844" style="stop-color:#0caf7d;stop-opacity:1"/><stop offset="0.84375" style="stop-color:#15af7b;stop-opacity:1"/><stop offset="0.847656" style="stop-color:#1baf79;stop-opacity:1"/><stop offset="0.851563" style="stop-color:#21b078;stop-opacity:1"/><stop offset="0.855469" style="stop-color:#25b076;stop-opacity:1"/><stop offset="0.859375" style="stop-color:#29b074;stop-opacity:1"/><stop offset="0.863281" style="stop-color:#2cb073;stop-opacity:1"/><stop offset="0.867188" style="stop-color:#2fb171;stop-opacity:1"/><stop offset="0.871094" style="stop-color:#32b16f;stop-opacity:1"/><stop offset="0.875" style="stop-color:#35b16d;stop-opacity:1"/><stop offset="0.878906" style="stop-color:#37b16c;stop-opacity:1"/><stop offset="0.882813" style="stop-color:#3ab26a;stop-opacity:1"/><stop offset="0.886719" style="stop-color:#3cb269;stop-opacity:1"/><stop offset="0.890625" style="stop-color:#3eb267;stop-opacity:1"/><stop offset="0.894531" style="stop-color:#40b265;stop-opacity:1"/><stop offset="0.898437" style="stop-color:#42b364;stop-opacity:1"/><stop offset="0.902344" style="stop-color:#45b362;stop-opacity:1"/><stop offset="0.90625" style="stop-color:#47b360;stop-opacity:1"/><stop offset="0.910156" style="stop-color:#49b35e;stop-opacity:1"/><stop offset="0.914063" style="stop-color:#4bb45d;stop-opacity:1"/><stop offset="0.917969" style="stop-color:#4db45b;stop-opacity:1"/><stop offset="0.921875" style="stop-color:#4eb459;stop-opacity:1"/><stop offset="0.925781" style="stop-color:#50b457;stop-opacity:1"/><stop offset="0.929688" style="stop-color:#52b556;stop-opacity:1"/><stop offset="0.933594" style="stop-color:#54b554;stop-opacity:1"/><stop offset="0.9375" style="stop-color:#56b552;stop-opacity:1"/><stop offset="0.941406" style="stop-color:#57b550;stop-opacity:1"/><stop offset="0.945313" style="stop-color:#59b64e;stop-opacity:1"/><stop offset="0.949219" style="stop-color:#5ab64c;stop-opacity:1"/><stop offset="0.953125" style="stop-color:#5bb64a;stop-opacity:1"/><stop offset="0.957031" style="stop-color:#5db648;stop-opacity:1"/><stop offset="0.960937" style="stop-color:#5fb646;stop-opacity:1"/><stop offset="0.964844" style="stop-color:#60b744;stop-opacity:1"/><stop offset="0.96875" style="stop-color:#61b742;stop-opacity:1"/><stop offset="0.972656" style="stop-color:#63b740;stop-opacity:1"/><stop offset="0.976563" style="stop-color:#65b83e;stop-opacity:1"/><stop offset="0.980469" style="stop-color:#66b83c;stop-opacity:1"/><stop offset="0.984375" style="stop-color:#68b83a;stop-opacity:1"/><stop offset="0.988281" style="stop-color:#69b837;stop-opacity:1"/><stop offset="0.992188" style="stop-color:#6ab935;stop-opacity:1"/><stop offset="0.996094" style="stop-color:#6bb932;stop-opacity:1"/><stop offset="1" style="stop-color:#6cb930;stop-opacity:1"/></linearGradient></defs><path d="M324.543 114.064c-42.647 0-70.767 22.379-70.767 50 0 27.622 28.12 50 70.767 50 42.678 0 70.797-22.378 70.797-50 0-27.621-28.12-50-70.797-50" style="fill:#fff;fill-opacity:1;fill-rule:nonzero;stroke:none;stroke-width:7.49852" transform="translate(148.099 -114.064)"/><path d="M337.168 182.752c12.156-2.108 53.193-10.545 48.155-33.948-1.846-8.407-10.487-17.663-23.521-24.078-10.428-4.686-23.14-7.41-37.405-7.41-39.602 0-67.165 20.943-67.165 46.748 0 17.985 13.386 33.597 34.886 41.418 4.57-12.01 22.73-18.863 45.05-22.73" style="fill:#0073c2;fill-opacity:1;fill-rule:nonzero;stroke:none;stroke-width:7.49852" transform="translate(148.099 -114.064)"/><g clip-path="url(#a)" transform="matrix(7.49854 0 0 7.49854 -1673.17 -1254.101)"><g clip-path="url(#b)"><path d="M282.023 173.016v7.132h13.079v-7.132zm0 0" style="fill:url(#c);fill-rule:nonzero;stroke:none"/></g></g><path d="M286.172 139.665h-13.269l.147.38c.585 1.405.556 4.013.498 6.357v30.667h.264c.06 0 6.034.213 11.716.213 11.863 0 19.83-8.026 19.83-20.006 0-10.691-7.528-17.604-19.186-17.604m-6.942 3.34c.762-.064 3.105-.234 4.804-.234 10.135 0 14.85 4.92 14.85 15.465 0 10.926-4.188 16.228-12.829 16.228-6.297 0-6.825-.294-6.825-4.042zM341.034 176.806c-.204-2.197-.293-3.69-.293-4.98v-13.093h-6.297l.206.41s.644 1.259.644 4.014c0 .085 0 9.11-.234 11.218-1.523.41-3.574.527-4.892.527-10.017 0-15.085-5.741-15.085-17.047 0-8.67 5.712-15.115 13.884-15.7 4.306-.323 8.465.85 11.072 3.134l.44.38v-5.301l-.204-.022c-2.607-.497-5.654-1.024-8.641-1.024-14.412 0-23.023 7.586-23.023 20.299 0 13.532 10.515 18.336 20.357 18.336 4.16 0 8.495-.294 11.834-.85l.264-.064zM363.53 156.507c3.632-.937 7.088-4.13 7.088-8.758 0-5.067-4.569-8.084-12.243-8.084h-11.336l.06.323s.351 1.524.351 4.95v32.426h.264c.06 0 4.482-.085 9.96-.085 9.548 0 15.026-4.16 15.026-11.365 0-4.482-3.72-8.231-9.168-9.403m-10.428 1.845h2.929c6.766 0 10.223 2.636 10.223 7.88 0 5.535-2.959 8.23-9.051 8.23-2.959 0-4.101-1.084-4.101-3.808zm.03-15.759h3.72c5.829 0 8.318 1.758 8.318 5.917 0 4.716-3.046 6.913-9.636 6.913h-2.432zm0 0" style="fill:#fff;fill-opacity:1;fill-rule:nonzero;stroke:none;stroke-width:7.49852" transform="translate(148.099 -114.064)"/><path d="M5.856 164.299c14.674 1.524 30.785-1.26 30.785-1.26l-.967-6.708s-17.4 2.812-29.76.76c-4.013-.673-5.507-2.372-5.507-5.623v-.085h34.71v-6.767H.407v-5.506h35.355v-7H-7.853v19.624c0 8.202 4.98 11.629 13.708 12.566M-13.418 176.162h24.312v20.416h8.29v-20.416h24.34v-6.913h-56.942zM100.583 131.639h-8.348v65.026h8.348v-38.049h10.486v-7.176h-10.486zM75.569 161.34c-2.666-4.628-4.013-9.724-4.16-16.198v-3.895h12.83v-7.001H50.612v7h12.332v3.896c-.147 6.474-1.377 11.482-4.013 16.11-2.372 4.16-6.18 8.612-11.248 12.215l4.54 5.272c10.487-5.77 14.939-16.11 14.939-16.11h.03s4.364 9.783 14.323 15.73l4.54-5.332A37.498 37.498 0 0 1 75.57 161.34M-33.453 196.666h8.319v-65.027h-8.32zM-60.489 134.1c-11.13 0-18.776 9.256-18.776 22.378s7.645 22.378 18.776 22.378c11.13 0 18.805-9.256 18.805-22.378S-49.358 134.1-60.489 134.1m0 37.668c-6.737 0-10.369-6.503-10.369-15.29 0-8.787 3.632-15.29 10.37-15.29 6.736 0 10.397 6.503 10.397 15.29 0 8.787-3.661 15.29-10.398 15.29M-125.31 130.907h-8.319v6.356h-14.47v7h37.288v-7h-14.5zM-95.17 131.639h-8.318v65.026h8.318v-38.02h10.516v-7.176H-95.17zM-129.645 146.197c-9.286 0-17.077 6.356-17.077 16.52s7.791 16.491 17.077 16.491c9.314 0 17.106-6.327 17.106-16.491s-7.792-16.52-17.106-16.52m.03 26.069c-5.537 0-8.876-4.071-8.876-9.549 0-5.507 3.34-9.578 8.875-9.578 5.507 0 8.876 4.071 8.876 9.578 0 5.478-3.369 9.549-8.876 9.549M116.108 167.374h56.912v-6.942h-56.912zM119.915 151.645l2.08 6.122c11.54-1.524 19.361-5.917 22.554-9.344 3.222 3.427 11.043 7.82 22.584 9.344l2.08-6.122c-5.42-1.142-17.722-4.54-19.714-12.507h16.99v-7.001h-43.85v7h16.99c-1.993 7.968-14.295 11.366-19.714 12.508M159.195 174.228c-1.7-1.258-3.779-2.226-6.21-2.958-2.431-.704-5.243-1.084-8.436-1.084-3.163 0-5.946.38-8.406 1.084-2.432.733-4.511 1.698-6.21 2.958-1.699 1.26-2.958 2.754-3.837 4.511-.85 1.699-1.289 3.574-1.289 5.624 0 2.051.44 3.955 1.289 5.683.879 1.728 2.138 3.222 3.837 4.481 1.699 1.26 3.778 2.226 6.21 2.93 2.46.703 5.243 1.054 8.406 1.054 3.193 0 6.005-.353 8.436-1.055 2.431-.703 4.51-1.67 6.21-2.929 1.67-1.26 2.958-2.753 3.837-4.481.85-1.728 1.289-3.632 1.289-5.683 0-2.051-.44-3.925-1.289-5.624-.879-1.758-2.168-3.251-3.837-4.51m-3.75 13.063c-.497.908-1.23 1.669-2.255 2.314-.996.644-2.226 1.144-3.661 1.524-1.436.323-3.076.527-4.98.527-1.845 0-3.515-.212-4.98-.527-1.405-.38-2.635-.878-3.66-1.524-.996-.644-1.729-1.405-2.256-2.314a5.984 5.984 0 0 1-.762-2.929c0-1.054.263-2.021.762-2.929.527-.908 1.26-1.67 2.255-2.314 1.026-.644 2.256-1.171 3.662-1.524 1.464-.38 3.134-.557 4.98-.557 1.903 0 3.543.17 4.979.557 1.435.35 2.665.878 3.661 1.524 1.025.644 1.758 1.405 2.256 2.314.527.908.761 1.875.761 2.93 0 1.053-.234 2.02-.761 2.928M202.516 139.753c.586.584.586 1.084.586 1.845.06 5.067-1.435 11.658-1.464 11.716l7.937 1.114c1.64-8.319 1.728-15.7 1.7-15.788-.06-2.08-.616-3.515-1.817-4.628-1.933-1.875-4.54-1.875-5.682-1.875h-21.5v6.942h18.043zM201.052 188.523c-1.963 0-3.574-.47-4.306-1.288-.879-.968-.937-2.227-.937-3.545v-7.234h-8.436v9.9c0 2.168.293 4.687 2.607 6.825 1.728 1.61 4.364 2.402 7.82 2.402h31.02v-7.06zM207.73 166.73v7.147h12.42v7.118h8.406v-49.473h-8.406v35.208zm0 0" style="fill:#003a82;fill-opacity:1;fill-rule:nonzero;stroke:none;stroke-width:7.49852" transform="translate(148.099 -114.064)"/><path d="M191.269 173.965h8.435v-10.516h15.76v-6.942h-37.64v6.942h13.445zm0 0" style="fill:#003a82;fill-opacity:1;fill-rule:nonzero;stroke:none;stroke-width:7.49852" transform="translate(148.099 -114.064)"/></svg>