<svg xmlns="http://www.w3.org/2000/svg" xml:space="preserve" width="365.47501" height="100" viewBox="0 0 365.47501 99.999998"><defs><linearGradient id="b" x1="0" x2="1" y1="0" y2="0" gradientTransform="scale(-18.4029) rotate(-.546 -3684.75 644.902)" gradientUnits="userSpaceOnUse" spreadMethod="pad"><stop offset="0" style="stop-opacity:1;stop-color:#f47920"/><stop offset="0.0996612" style="stop-opacity:1;stop-color:#f47920"/><stop offset="0.44032139" style="stop-opacity:1;stop-color:#f47920"/><stop offset="0.999661" style="stop-opacity:1;stop-color:#c9242b"/><stop offset="1" style="stop-opacity:1;stop-color:#c9242b"/></linearGradient><linearGradient id="d" x1="0" x2="1" y1="0" y2="0" gradientTransform="rotate(-.545 69743.886 -11893.567) scale(16.43797)" gradientUnits="userSpaceOnUse" spreadMethod="pad"><stop offset="0" style="stop-opacity:1;stop-color:#15b1e7"/><stop offset="0.05557917" style="stop-opacity:1;stop-color:#15b1e7"/><stop offset="1" style="stop-opacity:1;stop-color:#0060af"/></linearGradient><linearGradient id="f" x1="0" x2="1" y1="0" y2="0" gradientTransform="scale(24.32812) rotate(-.546 2777.207 -494.184)" gradientUnits="userSpaceOnUse" spreadMethod="pad"><stop offset="0" style="stop-opacity:1;stop-color:#8cc63f"/><stop offset="0.37851141" style="stop-opacity:1;stop-color:#8cc63f"/><stop offset="1" style="stop-opacity:1;stop-color:#009559"/></linearGradient><clipPath id="a" clipPathUnits="userSpaceOnUse"><path d="M98.618 659.764c-.542-2.488-.289-23.866-.095-26.34.136-1.817.902-2.878 3.033-2.836 14.863.239 18.762 18.254 9.581 26.735-1.47 1.354-3.26 2.468-5.417 3.226-1.082.381-2.869.937-4.394.937-1.305 0-2.424-.414-2.708-1.722"/></clipPath><clipPath id="c" clipPathUnits="userSpaceOnUse"><path d="M116.789 676.702c-.491-2.252-.257-21.662-.086-23.913.129-1.645.817-2.607 2.752-2.578 13.5.223 17.045 16.582 8.71 24.277-1.334 1.23-2.974 2.244-4.915 2.927-.989.351-2.609.856-3.993.856-1.197 0-2.206-.387-2.468-1.569"/></clipPath><clipPath id="e" clipPathUnits="userSpaceOnUse"><path d="M119.828 659.232c-.627-2.836-.325-27.221-.105-30.048.162-2.08 1.023-3.277 3.454-3.239 16.963.27 21.422 20.828 10.949 30.502-1.676 1.545-3.742 2.82-6.178 3.678-1.246.442-3.285 1.073-5.015 1.073-1.5 0-2.78-.475-3.105-1.966"/></clipPath></defs><g clip-path="url(#a)" transform="matrix(1.91106 0 0 -1.91106 -187.841 1296.22)"><path d="M98.618 659.764c-.542-2.488-.289-23.866-.095-26.34.136-1.817.902-2.878 3.033-2.836 14.863.239 18.762 18.254 9.581 26.735-1.47 1.354-3.26 2.468-5.417 3.226-1.082.381-2.869.937-4.394.937-1.305 0-2.424-.414-2.708-1.722" style="fill:url(#b);stroke:none"/></g><g clip-path="url(#c)" transform="matrix(1.91106 0 0 -1.91106 -187.841 1296.22)"><path d="M116.789 676.702c-.491-2.252-.257-21.662-.086-23.913.129-1.645.817-2.607 2.752-2.578 13.5.223 17.045 16.582 8.71 24.277-1.334 1.23-2.974 2.244-4.915 2.927-.989.351-2.609.856-3.993.856-1.197 0-2.206-.387-2.468-1.569" style="fill:url(#d);stroke:none"/></g><g clip-path="url(#e)" transform="matrix(1.91106 0 0 -1.91106 -187.841 1296.22)"><path d="M119.828 659.232c-.627-2.836-.325-27.221-.105-30.048.162-2.08 1.023-3.277 3.454-3.239 16.963.27 21.422 20.828 10.949 30.502-1.676 1.545-3.742 2.82-6.178 3.678-1.246.442-3.285 1.073-5.015 1.073-1.5 0-2.78-.475-3.105-1.966" style="fill:url(#f);stroke:none"/></g><path d="M0 0c0-4.949-3.287-8.147-8.226-8.147h-4.343V8.179h4.341C-3.138 8.179 0 5.102 0 0m-8.114 11.787h-8.613v-23.545h8.616c7.108 0 12.267 4.933 12.267 11.729 0 7.071-4.931 11.818-12.27 11.816" style="fill:#00854a;fill-opacity:1;fill-rule:nonzero;stroke:none" transform="matrix(1.91106 0 0 -1.91106 123.182 55.5)"/><path d="M0 0c-.762-.185-1.222-.651-1.343-1.364-.093-.544.03-1.119.329-1.537.242-.331.568-.542.956-.605.537-.089 1.132-.116 1.761-.143 1.85-.083 3.813-.167 4.689-1.811.519-.976.441-2.245-.196-3.161-.654-.948-1.941-1.521-3.826-1.632-.24-.014-.489-.02-.758-.02h-5.243l-.002 16.327h4.75c3.132 0 4.393-.901 4.393-2.809.002-1.051-.397-2.017-1.189-2.588C3.607.141 2.574.13 1.575.118 1.129.113.493.103 0 0m7.125-1.697C8.658-.654 9.669 1.431 9.669 3.621c0 3.784-3.034 6.044-8.12 6.041h-9.336v-23.544h9.504c5.742 0 9.175 2.515 9.173 6.726 0 2.517-1.234 4.306-3.765 5.459" style="fill:#00854a;fill-opacity:1;fill-rule:nonzero;stroke:none" transform="matrix(1.91106 0 0 -1.91106 149.574 51.438)"/><path d="M0 0h-20.196c-.374 0-.69-.129-.949-.387a1.324 1.324 0 0 1-.388-.974c0-.373.13-.69.388-.947.259-.258.575-.387.949-.387H0c.375 0 .689.129.947.387.259.257.388.574.388.947 0 .391-.129.715-.388.974A1.285 1.285 0 0 1 0 0" style="fill:#00854a;fill-opacity:1;fill-rule:nonzero;stroke:none" transform="matrix(1.91106 0 0 -1.91106 218.268 50.313)"/><path d="M0 0h12.353v-3.628c0-.446.157-.819.467-1.121a1.564 1.564 0 0 1 1.134-.454c.426 0 .79.151 1.094.454.303.302.453.675.453 1.121v6.19H0c-.339 0-.638-.129-.894-.387a1.226 1.226 0 0 1 0-1.788A1.22 1.22 0 0 1 0 0" style="fill:#00854a;fill-opacity:1;fill-rule:nonzero;stroke:none" transform="matrix(1.91106 0 0 -1.91106 184.515 38.84)"/><path d="M0 0h10.085v-3.282c0-.533-.267-.8-.8-.8H.801c-.534 0-.801.267-.801.8Zm-3.844 2.268c0-.587.25-.978.749-1.174v-4.99c0-1.831.994-2.748 2.987-2.748h10.273c2.01 0 3.015.917 3.015 2.748v6.431H-3.844Z" style="fill:#00854a;fill-opacity:1;fill-rule:nonzero;stroke:none" transform="matrix(1.91106 0 0 -1.91106 189.359 64.335)"/><path d="M0 0c0-.007.005-.013.005-.02-.32.147-.65.284-1.005.393a8.711 8.711 0 0 1-2.576.373A8.714 8.714 0 0 1-6.151.373a8.231 8.231 0 0 1-1.09-.427c.001.019.011.034.011.054v2.107H0Zm-1.014-6.018c-.658-.506-1.511-.76-2.562-.76-1.049 0-1.901.254-2.562.76-.656.507-.986 1.099-.986 1.775 0 .695.33 1.294.986 1.801.661.507 1.513.759 2.562.759 1.051 0 1.904-.252 2.562-.759.66-.507.987-1.106.987-1.801 0-.676-.327-1.268-.987-1.775m7.551 10.66h-20.332c-.354 0-.654-.121-.893-.361-.241-.24-.36-.547-.36-.92 0-.339.119-.632.36-.881a1.19 1.19 0 0 1 .893-.373h3.444V0c0-.428.15-.792.454-1.094.213-.216.471-.327.749-.389a4.814 4.814 0 0 1-.564-.812 4.084 4.084 0 0 1-.508-1.974c0-.676.17-1.326.508-1.948a5.15 5.15 0 0 1 1.414-1.629 7.448 7.448 0 0 1 2.147-1.039 8.714 8.714 0 0 1 2.575-.374c.908 0 1.767.125 2.576.374.81.249 1.526.595 2.148 1.039a5.134 5.134 0 0 1 1.413 1.629c.338.622.506 1.272.506 1.948 0 .692-.168 1.351-.506 1.974a4.936 4.936 0 0 1-.573.826c.25.068.483.177.681.375.302.302.452.666.452 1.094v2.107h3.416c.355 0 .658.124.908.373.247.249.373.542.373.881 0 .373-.126.68-.373.92-.25.24-.553.361-.908.361" style="fill:#00854a;fill-opacity:1;fill-rule:nonzero;stroke:none" transform="matrix(1.91106 0 0 -1.91106 253.656 62.188)"/><path d="M0 0c.205.365.492.69.867.974a4.17 4.17 0 0 0 1.321.613 5.952 5.952 0 0 0 1.613.214c.57 0 1.108-.072 1.616-.214A4.194 4.194 0 0 0 6.735.974C7.11.69 7.399.365 7.604 0c.204-.365.308-.743.308-1.134 0-.409-.104-.795-.308-1.161a2.897 2.897 0 0 0-.869-.946 3.874 3.874 0 0 0-1.318-.641 5.974 5.974 0 0 0-1.616-.214c-.569 0-1.106.072-1.613.214a3.854 3.854 0 0 0-1.321.641A2.89 2.89 0 0 0 0-2.295a2.349 2.349 0 0 0-.308 1.161c0 .391.104.769.308 1.134m-1.347-4.976c.659-.48 1.43-.858 2.321-1.134a9.48 9.48 0 0 1 2.827-.413c.999 0 1.939.137 2.83.413.888.276 1.663.654 2.319 1.134a5.4 5.4 0 0 1 1.494 1.748c.358.667.534 1.364.534 2.094a4.29 4.29 0 0 1-.534 2.081A5.485 5.485 0 0 1 8.95 2.682c-.656.497-1.431.88-2.319 1.147-.891.267-1.831.4-2.83.4a9.776 9.776 0 0 1-2.827-.4c-.891-.267-1.662-.65-2.321-1.147A5.569 5.569 0 0 1-2.843.947a4.344 4.344 0 0 1-.532-2.081c0-.73.179-1.427.532-2.094a5.481 5.481 0 0 1 1.496-1.748" style="fill:#00854a;fill-opacity:1;fill-rule:nonzero;stroke:none" transform="matrix(1.91106 0 0 -1.91106 239.558 39.32)"/><path d="M0 0v-7.658c0-1.815.996-2.72 2.989-2.72h12.433c.356 0 .663.123.919.372.258.249.388.552.388.908 0 .338-.13.635-.388.893a1.25 1.25 0 0 1-.919.387H3.921c-.533 0-.799.276-.799.828v1.28h12.087c.355 0 .652.12.894.36.238.241.359.538.359.895 0 .337-.121.635-.359.892a1.173 1.173 0 0 1-.894.388H3.122v2.054h12.142c.355 0 .656.124.905.373.25.249.373.552.373.908 0 .338-.123.635-.373.894a1.21 1.21 0 0 1-.905.386H-.721v-.266C-.721.587-.48.196 0 0" style="fill:#00854a;fill-opacity:1;fill-rule:nonzero;stroke:none" transform="matrix(1.91106 0 0 -1.91106 278.997 36.898)"/><path d="M0 0h-20.304c-.372 0-.68-.12-.921-.361-.239-.24-.359-.546-.359-.92 0-.373.12-.68.359-.92.241-.239.549-.36.921-.36h8.618v-4.75c0-.41.151-.769.454-1.08a1.47 1.47 0 0 1 1.093-.466c.428 0 .791.155 1.095.466.301.311.454.67.454 1.08v4.75H0c.374 0 .68.121.921.36.239.24.359.547.359.92 0 .374-.12.68-.359.92C.68-.12.374 0 0 0" style="fill:#00854a;fill-opacity:1;fill-rule:nonzero;stroke:none" transform="matrix(1.91106 0 0 -1.91106 313.924 60.66)"/><path d="M0 0a20.493 20.493 0 0 0-3.442 3.895c-1.102 1.654-1.644 3.593-1.626 5.817v.427h4.081c.356 0 .664.128.923.386.255.258.384.565.384.921 0 .373-.129.693-.384.961-.259.266-.567.4-.923.4h-11.472a1.28 1.28 0 0 1-.934-.4 1.309 1.309 0 0 1-.4-.961c0-.356.132-.663.4-.921.266-.258.577-.386.934-.386h4.242v-.293c0-2.349-.552-4.368-1.653-6.057-.998-1.495-2.244-2.828-3.737-4.002a1.395 1.395 0 0 1-.372-.427 1.22 1.22 0 0 1-.16-.481 1.265 1.265 0 0 1 .24-.987c.23-.321.586-.499 1.065-.534.338-.018.667.063.988.24 1.584 1.05 3.131 2.678 4.641 4.883.234.338.447.685.643 1.04a3.49 3.49 0 0 1 .318-.56C-4.713.72-3.191-.97-1.681-2.108a.906.906 0 0 1 .374-.227c.142-.045.328-.067.56-.067.409 0 .766.169 1.067.508.249.284.338.631.267 1.04a.982.982 0 0 1-.171.426C.316-.286.178-.142 0 0" style="fill:#00854a;fill-opacity:1;fill-rule:nonzero;stroke:none" transform="matrix(1.91106 0 0 -1.91106 347.577 59.588)"/><path d="M0 0c-.277.266-.61.4-1.003.4h-2.638v7.176h-3.816v-.292c0-.571.23-.961.693-1.174v-20.278c0-.41.156-.769.467-1.081.31-.31.679-.466 1.109-.466.406 0 .767.156 1.078.466.311.312.469.671.469 1.081v11.793h2.638c.393 0 .726.138 1.003.413.276.276.413.601.413.974C.413-.596.276-.268 0 0" style="fill:#00854a;fill-opacity:1;fill-rule:nonzero;stroke:none" transform="matrix(1.91106 0 0 -1.91106 364.686 47.554)"/></svg>