<svg xmlns="http://www.w3.org/2000/svg" xmlns:xlink="http://www.w3.org/1999/xlink" width="617.85059" height="242.26152" viewBox="0 0 61.785059 46.889327"><defs><path id="a" d="M29.454 24.438H.03V.016h29.424z"/><path id="c" d="M28.288 34.9H.035V.026h28.253z"/></defs><g fill="none" fill-rule="evenodd"><g transform="translate(-28.9 22.451)"><mask id="b" fill="#fff"><use xlink:href="#a" width="100%" height="100%"/></mask><path fill="#38d200" d="M22.88 23.75 3.212 10.955S.744 9.539.18 6.899C-.614 3.193 2.001.016 2.001.016l25.529 16.61c1.969 1.282 2.506 3.905 1.24 5.883-1.3 2.033-3.972 2.481-5.89 1.24" mask="url(#b)"/></g><g transform="translate(-27.698 -.027)"><mask id="d" fill="#fff"><use xlink:href="#c" width="100%" height="100%"/></mask><path fill="#0473ea" d="M3.049 19.752S.035 17.935.035 13.731c0-4.19 3.012-5.985 3.012-5.985L13.801.715a4.259 4.259 0 0 1 5.888 1.247 4.25 4.25 0 0 1-1.25 5.883L9.378 13.74 24.819 23.79s2.78 1.591 3.327 4.276c.765 3.748-1.817 6.834-1.817 6.834z" mask="url(#d)"/></g><path fill="#38d200" d="M-4.41 9.524c-1.01 0-1.728.318-2.429.774l-5.25 3.416 5.25 3.416c.708.455 1.45.774 2.43.774a4.192 4.192 0 0 0 4.193-4.19 4.192 4.192 0 0 0-4.193-4.19"/><path fill="#0473ea" d="M-24.706 46.878c1.01 0 1.729-.318 2.43-.774l5.25-3.416-5.25-3.415c-.708-.456-1.45-.775-2.43-.775a4.192 4.192 0 0 0-4.193 4.19 4.191 4.191 0 0 0 4.193 4.19"/><path fill="#fff" d="m118.041 22.694 1.543.942v11.26h-1.543v-1.59c-.752 1.109-1.957 1.786-3.406 1.786-2.71 0-4.647-2.012-4.647-4.757 0-2.8 1.938-4.85 4.647-4.85 1.45 0 2.654.696 3.406 1.824zm-39.32-.004 1.525.941v8.185c0 1.298.79 1.805 1.787 1.805.753 0 1.505-.207 2.164-.677v1.485c-.64.47-1.524.658-2.296.658-1.975 0-3.18-.883-3.18-3.383zm25.806 2.77c2.671 0 4.421 1.974 4.421 4.625 0 .263-.019.526-.056.77h-7.32c.226 1.674 1.543 2.783 3.387 2.783 1.186 0 2.333-.339 3.312-1.034v1.466c-.997.677-2.126.996-3.312.996-2.916 0-5.005-1.88-5.005-4.718 0-2.782 1.769-4.888 4.573-4.888zm-39.175 0c1.449 0 2.634.677 3.406 1.786V25.63H70.3v9.267h-1.543v-1.579c-.772 1.09-1.957 1.748-3.406 1.748-2.71 0-4.647-2.011-4.647-4.756 0-2.8 1.937-4.85 4.647-4.85zm-19.136 0c1.11 0 2.145.32 2.973.94v1.71c-.734-.789-1.75-1.202-2.879-1.202-1.976 0-3.368 1.372-3.368 3.346s1.411 3.365 3.387 3.365c1.11 0 2.145-.3 2.954-.996v1.56c-.903.62-1.976.883-3.104.883-2.842 0-4.817-1.973-4.817-4.812 0-2.82 2.032-4.794 4.854-4.794zm42.618 0c2.672 0 4.422 1.974 4.422 4.625 0 .263-.019.526-.057.77H85.88c.226 1.674 1.543 2.783 3.387 2.783 1.185 0 2.333-.339 3.312-1.034v1.466c-.998.677-2.127.996-3.312.996-2.917 0-5.005-1.88-5.005-4.718 0-2.782 1.768-4.888 4.572-4.888zm-37.858-2.768 1.525.94v3.577c.696-1.072 1.806-1.749 3.217-1.749 2.333 0 3.575 1.711 3.575 3.986v5.451H57.75V29.71c0-1.805-.79-2.764-2.408-2.764-1.712 0-2.841 1.467-2.841 3.309v4.643h-1.525zm26.606 2.768v1.749c-1.844-.264-3.387.977-3.387 3.27v4.418h-1.524V25.63h1.524v1.973c.734-1.372 1.92-2.143 3.387-2.143zm22.26 0v1.749c-1.845-.264-3.388.977-3.388 3.27v4.418H94.93V25.63h1.524v1.973c.734-1.372 1.92-2.143 3.387-2.143zm14.944 1.473c-1.882 0-3.218 1.429-3.218 3.384 0 1.917 1.336 3.327 3.218 3.327 1.9 0 3.255-1.41 3.255-3.327 0-1.955-1.355-3.384-3.255-3.384zm-49.283-.025c-1.882 0-3.218 1.429-3.218 3.384 0 1.917 1.336 3.327 3.218 3.327 1.9 0 3.255-1.41 3.255-3.327 0-1.955-1.355-3.384-3.255-3.384zm23.35-.038c-1.693 0-2.71 1.185-2.954 2.745h5.739c-.15-1.58-1.148-2.745-2.785-2.745zm15.692 0c-1.693 0-2.71 1.185-2.954 2.745h5.74c-.151-1.58-1.149-2.745-2.786-2.745zM81.43 25.497a1.178 1.178 0 0 1 1.279.012l1.535 1.02-1.516.971a1.178 1.178 0 0 1-1.268.002l-.032-.02a1.175 1.175 0 0 1 .001-1.985zM59.933 11.908c1.449 0 2.634.677 3.406 1.786v-1.617h1.543v9.268h-1.543v-1.58c-.772 1.091-1.957 1.749-3.406 1.749-2.71 0-4.647-2.011-4.647-4.756 0-2.8 1.937-4.85 4.647-4.85zm-9.07-2.8v9.135c0 1.297.791 1.805 1.788 1.805.753 0 1.506-.207 2.164-.677v1.485c-.64.47-1.524.658-2.295.658-1.976 0-3.18-.884-3.18-3.384v-8.08zm63.938 0v12.237h-1.543v-1.617c-.753 1.11-1.957 1.786-3.406 1.786-2.71 0-4.647-2.011-4.647-4.756 0-2.8 1.938-4.85 4.647-4.85 1.45 0 2.653.696 3.406 1.824V10.05Zm-21.921 2.8c1.449 0 2.634.677 3.406 1.786v-1.617h1.542v9.268h-1.542v-1.58c-.772 1.091-1.957 1.749-3.406 1.749-2.71 0-4.648-2.011-4.648-4.756 0-2.8 1.938-4.85 4.648-4.85zm-48.188 0c1.091 0 2.107.3 2.822.846v1.598c-.846-.752-1.881-1.184-2.803-1.184-.979 0-1.675.45-1.675 1.203 0 .564.264.902.998 1.184l2.201.883c1.185.508 1.731 1.222 1.731 2.219 0 1.767-1.43 2.857-3.443 2.857-1.223 0-2.334-.338-3.143-.94V18.92c.979.92 2.07 1.335 3.162 1.335 1.09 0 1.881-.47 1.881-1.316 0-.508-.263-.903-.96-1.185l-2.201-.883c-1.129-.489-1.75-1.128-1.75-2.331 0-1.617 1.299-2.632 3.18-2.632zm41.884-2.8v12.237h-1.543v-1.617c-.752 1.11-1.956 1.786-3.405 1.786-2.71 0-4.648-2.011-4.648-4.756 0-2.8 1.938-4.85 4.648-4.85 1.449 0 2.653.696 3.405 1.824V10.05zm18.534 2.8v1.748c-1.844-.263-3.387.978-3.387 3.271v4.418H100.2v-9.268h1.524v1.974c.734-1.372 1.92-2.143 3.387-2.143zm-33.116 0c2.333 0 3.575 1.71 3.575 3.985v5.452h-1.543v-5.189c0-1.804-.79-2.763-2.408-2.763-1.713 0-2.842 1.466-2.842 3.309v4.643h-1.524v-9.268h1.524v1.58c.697-1.072 1.807-1.749 3.218-1.749zm-11.91 1.447c-1.882 0-3.218 1.43-3.218 3.384 0 1.918 1.336 3.328 3.218 3.328 1.9 0 3.255-1.41 3.255-3.328 0-1.955-1.355-3.384-3.255-3.384zm21.694 0c-1.881 0-3.217 1.43-3.217 3.384 0 1.918 1.336 3.328 3.217 3.328 1.9 0 3.255-1.41 3.255-3.328 0-1.955-1.354-3.384-3.255-3.384zm28.225 0c-1.882 0-3.218 1.43-3.218 3.384 0 1.918 1.336 3.328 3.218 3.328 1.9 0 3.255-1.41 3.255-3.328 0-1.955-1.355-3.384-3.255-3.384zm-16.972 0c-1.882 0-3.218 1.43-3.218 3.384 0 1.918 1.336 3.328 3.218 3.328 1.9 0 3.255-1.41 3.255-3.328 0-1.955-1.355-3.384-3.255-3.384zM52.988 12.06c.386-.248.881-.25 1.268-.004l.033.02a1.175 1.175 0 1 1-1.277 1.976l-1.537-1.017z" style="fill:#525355;fill-opacity:1" transform="translate(-28.9 -.04)"/></g></svg>