<svg xmlns="http://www.w3.org/2000/svg" width="334.289" height="49.903999" viewBox="0 0 88.447296 13.203767"><defs><clipPath id="a" clipPathUnits="userSpaceOnUse"><path d="M0 842h595V0H0Z"/></clipPath></defs><g clip-path="url(#a)" transform="matrix(.35278 0 0 -.35278 -60.381 174.43)"><path d="m0 0 .398-2.344c3.335.331 7.333 1.625 8.949 3.873 1.614-2.248 5.611-3.542 8.947-3.873L18.693 0c-5.058.604-7.515 2.342-7.884 4.054h6.767V6.51H1.116V4.054h6.769C7.514 2.342 5.057.604 0 0" style="fill:#656263" transform="translate(379.927 474.377)"/><path d="M0 0h-.001v-2.428H20.8V0h-.001z" style="fill:#656263" transform="translate(378.874 470.654)"/><path d="M0 0h5.115v-2.197H7.93v17.566H5.115V2.454H0Z" style="fill:#656263" transform="translate(413.532 465.93)"/><path d="M0 0h2.817v7.595H-9.402V5.114H0Z" style="fill:#656263" transform="translate(412.24 473.292)"/><path d="M0 0v4.294h-2.816V-2.48h17.152V0Z" style="fill:#656263" transform="translate(407.541 460.568)"/><path d="M0 0h2.817v4.058H6.08c2.927 0 5.004.465 5.004.465v2.329s-1.793-.391-4.605-.391H-4.906V4.058H0Z" style="fill:#656263" transform="translate(406.607 465.797)"/><path d="M315.943 464.194h-3.463v14.291h3.463zm5.452 9.126h-2.74v7.567h-8.886v-19.07h8.886v9.048h2.74v-12.717h2.74v22.997h-2.74zM326.252 457.864h2.739v23.437h-2.739z" style="fill:#656263"/><path d="M0 0h-5.848v6.102h8.14v10.514h-10.93v-2.481h8.165V8.557h-8.165V-2.454l8.631.015L0-2.445c3.172 0 5.406.57 5.406.57V.564S3.166-.005 0-.005z" style="fill:#656263" transform="translate(341.832 464.272)"/><path d="M349.085 457.864h2.816v23.437h-2.816zM355.458 459.52h20.801v2.429h-20.801z" style="fill:#656263"/><path d="m0 0 .001-.009L.005 0l.614-2.304C4.59-1.542 8.021.26 9.758 2.951l.013-.017c.002.005.008.012.012.017C11.519.26 14.95-1.542 18.922-2.304L19.534 0l.005-.009.002.009c-4.7 1.069-8.285 3.417-8.338 7.937h7.409v2.456h-7.409v2.842H8.336v-2.842H.928V7.937h7.408C8.285 3.417 4.701 1.069 0 0" style="fill:#656263" transform="translate(356.089 469.208)"/><path d="M0 0c-3.677 0-5.762 1.092-5.762 2.438 0 1.347 2.085 2.439 5.762 2.439 3.679 0 5.762-1.092 5.762-2.439C5.762 1.092 3.679 0 0 0m0 7.25c-5.577 0-8.714-1.942-8.714-4.812 0-2.869 3.137-4.811 8.714-4.811S8.715-.431 8.715 2.438C8.715 5.308 5.577 7.25 0 7.25" style="fill:#656263" transform="translate(389.299 459.735)"/><path d="M0 0c-3.158 0-5.422-1.037-7.261-3.678C-8.44-1.367-10.845 0-14.192 0c-2.547 0-5.565-1.32-6.743-3.395v2.688h-6.838v-23.435h7.168v13.486c0 2.121 1.367 4.055 3.866 4.055 2.593 0 3.772-1.745 3.772-3.961v-13.58h7.073v13.533c0 2.074 1.369 4.008 3.914 4.008 2.546 0 3.725-1.745 3.725-3.961v-13.58h6.932v15.183C8.677-2.594 4.433 0 0 0" style="fill:#ee2d21" transform="translate(198.933 482.007)"/><path d="M0 0v3.16h-6.932v-23.435H.235v10.232c0 4.668 2.594 6.365 5.471 6.365.707 0 1.461-.047 2.263-.236V3.16c-.471.141-1.179.236-1.886.236C4.198 3.396 1.226 2.641 0 0" style="fill:#ee2d21" transform="translate(243.04 478.14)"/><path d="M253.462 457.865h7.167V481.3h-7.167z" style="fill:#ee2d21"/><path d="M0 0h-6.412v-3.018c0-2.169-1.179-3.819-3.632-3.819h-1.178v-6.272h4.149v-10.044c0-4.668 2.971-7.544 7.827-7.544 2.263 0 3.442.519 3.726.66v5.941c-.426-.094-1.133-.235-1.886-.235-1.557 0-2.594.518-2.594 2.452v8.77h4.574v6.272H0Z" style="fill:#ee2d21" transform="translate(273.598 488.138)"/><path d="M0 0c-2.493 0-4.572-2.078-4.572-4.623 0-2.544 2.079-4.622 4.572-4.622 2.596 0 4.673 2.078 4.673 4.622C4.673-2.078 2.596 0 0 0" style="fill:#ee2d21" transform="translate(256.995 494.445)"/><path d="M0 0c.142 1.764 1.668 4.006 4.72 4.006 3.434 0 4.674-2.194 4.769-4.006Zm4.625 9.728c-6.151 0-11.827-4.864-11.827-12.493 0-7.964 5.817-12.637 12.352-12.637 5.372 0 8.946 2.746 10.462 6.259L9.684-6.892c-.775-1.441-2.183-2.359-4.439-2.359-2.814 0-5.245 1.907-5.39 4.578h16.501c.048.142.144 1.239.144 2.241 0 7.629-4.532 12.16-11.875 12.16" style="fill:#ee2d21" transform="translate(217.147 472.42)"/><path d="m0 0 10.709 11.27v5.894H-8.484v-6.272h9.911L-8.767.047v-6.318h19.663V0Z" style="fill:#ee2d21" transform="translate(289.626 464.137)"/></g></svg>