<svg xmlns="http://www.w3.org/2000/svg" xml:space="preserve" id="레이어_1" x="0px" y="0px" style="enable-background:new 0 0 235.1 46.3" version="1.1" viewBox="0 0 235.1 46.3"><style>.st1{fill:#1e1e1e}</style><path d="M21.9 2.1C9.8 2.1 0 9.8 0 19.4 0 25.5 4.1 30.9 10.2 34l-2.1 7.7c-.1.2 0 .5.2.7.1.1.3.2.4.2.1 0 .3-.1.4-.1l8.9-6c1.3.2 2.6.3 4 .3 12.1 0 21.9-7.8 21.9-17.3 0-9.7-9.8-17.4-22-17.4z" style="fill-rule:evenodd;clip-rule:evenodd;fill:#1e1e1e"/><path d="M62.4 33.8V45h-8V3.7H60l1 2.6c1.7-1.7 4.3-3.5 8.4-3.5 7.8 0 11.5 5.8 11.5 15.3 0 9.9-5.7 16.2-13.9 16.2-1.6 0-2.8-.1-4.6-.5zm0-23.4v17.8c.4.1 1.5.2 2.6.2 5.7 0 7.9-4 7.9-10.3 0-5.5-1.5-8.8-6-8.8-1.6 0-3.2.4-4.5 1.1zM98.2 15.3h4.5v-1c0-3.3-1.9-4.8-5.1-4.8-2.5 0-5.6.7-8.2 2l-2.2-5.3c2.8-2 7.2-3.3 11.1-3.3 7.6 0 11.8 4 11.8 11.7v18.9h-5.6l-.8-2.5c-3.2 2.3-6.2 3.3-8.8 3.3-5.8 0-9.1-3.5-9.1-9.4 0-6.2 4.3-9.6 12.4-9.6zm4.5 10.6v-5.5H99c-4.1 0-6.2 1.5-6.2 4.4 0 2.2 1.1 3.3 3.5 3.3 2.3.1 5.1-1 6.4-2.2zM134.3 30.5c-2.8 7.4-6.1 12.8-11 15.8l-4.9-4.5c2.8-2.5 4.9-4.9 6.6-8.1L114.4 4.8l7.9-2.1 6.8 23.4 6.7-23.5 7.8 2.2-9.3 25.7zM156 24.2v-3.4h41v3.4h-41zm31.5-22.9v2.1c0 1.5-.5 2.9-1.4 4.1-1 1.2-2.3 2.4-4 3.5l10.3 2.6-1.3 3.7L178 13c-2.2.9-4.6 1.8-7.3 2.5s-5.6 1.4-8.8 1.9l-1-3.4c3.2-.5 6.2-1.1 8.9-1.9 2.7-.8 5-1.6 6.9-2.4 1.9-.9 3.5-1.7 4.5-2.6 1.1-.9 1.6-1.7 1.6-2.4h-19.4V1.3h24.1zm.8 35.2c0 1.2-.3 2.4-.8 3.4s-1.3 1.9-2.3 2.7c-1 .8-2.2 1.3-3.7 1.8-1.5.4-3.1.6-5 .6s-3.5-.2-5-.6c-1.5-.4-2.7-1-3.7-1.8s-1.8-1.7-2.3-2.7c-.5-1-.8-2.2-.8-3.4 0-1.2.3-2.3.8-3.3s1.3-1.9 2.3-2.7c1-.8 2.2-1.4 3.7-1.8 1.5-.4 3.1-.7 5-.7s3.5.2 5 .7c1.5.4 2.7 1 3.7 1.8s1.8 1.7 2.3 2.7.8 2.2.8 3.3zm-4.2 0c0-.7-.1-1.3-.4-1.9-.3-.6-.8-1.1-1.4-1.6-.6-.5-1.4-.8-2.4-1.1-1-.3-2.1-.4-3.4-.4-1.3 0-2.4.1-3.3.4-.9.3-1.7.7-2.3 1.1-.6.5-1.1 1-1.4 1.6-.3.6-.4 1.2-.4 1.9s.1 1.3.4 1.9c.3.6.8 1.2 1.4 1.6.6.5 1.4.8 2.3 1.1.9.3 2.1.4 3.3.4 1.3 0 2.5-.1 3.4-.4 1-.3 1.7-.7 2.4-1.1.6-.5 1.1-1 1.4-1.6.2-.6.4-1.2.4-1.9zM209.8 27.4v-6.9c-2 .1-4.1.2-6.1.2h-6.1v-3.5c3.2 0 6.4 0 9.6-.1 3.2-.1 6.4-.2 9.6-.5.4-1.8.7-3.7.8-5.7.2-2 .2-3.9.2-5.5H201V1.9h21v2.4c0 1.9-.1 3.9-.3 6-.2 2.1-.4 4.1-.8 6 2-.2 4-.4 6.1-.7.1.6.1 1.1.2 1.7s.1 1.1.2 1.7c-2.1.3-4.3.6-6.6.8-2.2.2-4.5.4-6.9.5v7.2h-4.1zm-2.1 15.4V30.3h4.1v9.1H235v3.4h-27.3zM230 32v-5h-8.9v-3.3h8.9V0h4.1v32H230z" class="st1"/></svg>