<svg xmlns="http://www.w3.org/2000/svg" xml:space="preserve" width="567.72717" height="166.62799" viewBox="0 0 567.72715 166.62799"><path d="M552.61 342.767V391.3h33.547v-7.647h-25.309V371.42h23.487v-7.324h-23.487V350.48h26.428v-7.713zM346.407 342.767V391.3h33.55v-7.647h-25.31V371.42h23.485v-7.324h-23.485V350.48h26.426v-7.713zM607.583 342.767v40.887h-15.076v7.647h38.469v-7.647h-15.145v-40.887zM235.06 342.767l-21.461 21.452v-21.452h-8.418v48.649h8.418V371.33l20.924 20.085h12.457l-24.652-23.228 25.373-25.421z" style="fill:#231f20;fill-opacity:1;fill-rule:nonzero;stroke:none" transform="matrix(1.33333 0 0 -1.33333 -273.574 559.045)"/><path d="M268.259 349.53c-9.043 0-13.994 8.11-13.994 17.54s4.943 17.482 13.994 17.482c9.039 0 13.98-8.051 13.98-17.481 0-9.43-4.941-17.541-13.98-17.541m0 42.808c-14.074 0-23.277-11.317-23.277-25.267 0-13.96 9.293-25.27 23.277-25.27 13.98 0 23.266 11.31 23.266 25.27 0 13.95-9.196 25.267-23.266 25.267M319.944 370.944h-12.99v12.686h12.607c3.453 0 8.596-.944 8.596-6.028 0-5.527-4.19-6.658-8.213-6.658m12.19-12.543c-1.684 2.594-3.967 4.797-6.48 5.963 8.474 0 12.298 7.129 12.298 13.7 0 7.089-4.908 13.237-13.723 13.237h-25.732v-48.534h8.457v20.528h5.738c3.047 0 7.307-1.54 10.37-6.067 1.685-2.487 9.306-14.461 9.306-14.461h9.553zM484.372 372.077c-9.2 1.953-10.537 4.15-10.537 7.219 0 2.722 2.68 5.663 8.764 5.663 8.02 0 9.806-4.751 10.207-6.944h8.154c-1.156 9.978-7.565 14.453-18.19 14.453-8.777 0-17.078-4.318-17.078-13.715 0-9.956 6.885-12.04 17.305-14.623 10.104-2.512 11.488-5.314 11.488-8.191 0-2.876-2.634-6.74-11.32-6.74-9.32 0-10.828 6.81-11.072 9.135h-8.262c.246-8.141 5.61-16.5 19.156-16.5 14.26 0 19.483 7.43 19.483 14.639 0 8.346-3.409 12.493-18.098 15.604M527.872 372.077c-9.203 1.953-10.539 4.15-10.539 7.219 0 2.722 2.68 5.663 8.764 5.663 8.02 0 9.808-4.751 10.21-6.944h8.153c-1.156 9.978-7.565 14.453-18.19 14.453-8.777 0-17.078-4.318-17.078-13.715 0-9.956 6.887-12.04 17.305-14.623 10.104-2.512 11.488-5.314 11.488-8.191 0-2.876-2.634-6.74-11.322-6.74-9.318 0-10.826 6.81-11.07 9.135h-8.264c.248-8.141 5.611-16.5 19.158-16.5 14.26 0 19.483 7.43 19.483 14.639 0 8.346-3.41 12.493-18.098 15.604" style="fill:#231f20;fill-opacity:1;fill-rule:nonzero;stroke:none" transform="matrix(1.33333 0 0 -1.33333 -273.574 559.045)"/><path d="M482.44 407.685c.148.236-.102.415-.28.23-9.02-9.284-45.189-44.206-82.98-48.624 1.322.514 5.041 1.984 10.321 4.277l12.535 30.926 8.5-21.022c2.744 1.395 5.384 3.097 8.203 5.166l-16.703 40.646-31.385-76.534.297.17-.008-.02s18.707 1.38 44.387 18.732l7.633-18.882h10.443l-10.102 24.645c12.223 9.393 25.627 22.36 39.14 40.29" style="fill:#e31837;fill-opacity:1;fill-rule:nonzero;stroke:none" transform="matrix(1.33333 0 0 -1.33333 -273.574 559.045)"/><path d="M301.517 325.193c0-9.227-.402-13.974-1.564-19.767-2.13.293-2.985.373-3.538.471.407 2.066.987 5.987 1.016 8.304h-17.924v2.907h18.117s.207 3.144.1 5.12h-18.898v2.965zm-25.775-26.173v2.963h11.22v7.682h3.9v-7.682h15.18v-2.963zM330.403 294.822v32.08l3.94-.006v-32.074zm.26 7.591-21.147-.05v13.644H321.2v6.236h-11.684v2.973h15.373v-12.182h-11.744v-7.696h17.518zM347.78 305.022c-3.033 0-5.162 3.292-5.162 8.824 0 5.395 2.13 8.824 5.162 8.824 3.152 0 5.28-3.429 5.28-8.824 0-5.532-2.128-8.824-5.28-8.824m0 20.302c-5.605 0-8.842-4.905-8.842-11.478 0-6.503 3.237-11.442 8.842-11.442 5.654 0 8.861 4.907 8.861 11.412 0 6.603-3.207 11.508-8.86 11.508M364.76 314.974h4.485v-3.038h-4.484v-17.114h-3.941v32.08l3.94-.006zM416.687 309.494c-1.217.786-4.512 3.078-6.18 6.561-1.36-3.693-4.787-6.095-6.297-7.21l-2.062 2.302c4.038 2.561 6.462 6.125 6.462 12.767v2.2h3.853v-2.2c0-6.9 2.514-9.875 6.067-11.91zM405.425 296.916c5.625 1.465 10.588 4.448 10.588 8.448v1.484h4.017v-1.484c0-3.839 4.743-6.983 10.6-8.48l-1.57-2.441c-4.606 1.045-9.137 3.494-11.014 6.451-2.11-3-6.262-5.3-11.06-6.451z" style="fill:#231f20;fill-opacity:1;fill-rule:nonzero;stroke:none" transform="matrix(1.33333 0 0 -1.33333 -273.574 559.045)"/><path d="M424.026 307.715h-3.61v9.313h-4.695v3.062h4.694v6.855h3.611zM425.888 326.946h3.672v-19.23h-3.672zM438.517 311.783v14.8h21.324v-2.933H442.21v-2.884h16.838v-2.932H442.21v-3.089h17.63v-2.962zm8.52-16.92v11.512h-13.133v2.955h30.302v-2.955h-13.19v-11.512zM492.542 315.084h4.475v-3.111h-4.475v-17.151h-3.928v32.08l3.928-.006zM529.882 309.596H499.53v2.966h30.352zM514.749 297.247c-4.826 0-7.926 1.24-7.926 3.964 0 2.599 3.1 3.88 7.926 3.88 4.846 0 7.842-1.281 7.842-3.88 0-2.723-2.996-3.964-7.842-3.964m0 10.819c-7.25 0-11.957-2.814-11.957-6.855 0-4.133 4.707-6.898 11.957-6.898 7.379 0 11.875 2.765 11.875 6.898 0 4.04-4.496 6.855-11.875 6.855M542.155 305.642v6.026h-9.77v2.984h14.485l.656 8.69h-12.61v2.938h16.41l-.796-11.628h5.264v12.294l3.931-.007v-26.898h-3.93v6.224h-6.245v3.045h6.244v2.358h-9.963v-6.026zM536.82 294.822v10.191h3.987v-7.363h19.606v-2.828zM395.265 326.946h3.602V294.92h-3.602zm-8.653-11.913h3.063v11.913h3.637V294.92h-3.637v17.147h-3.063z" style="fill:#231f20;fill-opacity:1;fill-rule:nonzero;stroke:none" transform="matrix(1.33333 0 0 -1.33333 -273.574 559.045)"/><path d="M379.345 305.022c-2.395 0-3.975 3.292-3.975 8.824 0 5.395 1.58 8.824 3.975 8.824 2.486 0 4.068-3.429 4.068-8.824 0-5.532-1.582-8.824-4.068-8.824m-.004 20.302c-4.828 0-7.512-4.905-7.512-11.478 0-6.503 2.684-11.442 7.512-11.442 4.873 0 7.525 4.907 7.525 11.412 0 6.603-2.652 11.508-7.525 11.508M478.118 318.956v3.2h7.027v2.932h-17.994v-2.932h7.028v-3.2c0-7.146-3.32-11.745-8.313-14.71l2.027-2.343c1.506.82 6.668 4.191 8.256 8.362 1.588-4.17 6.748-7.543 8.254-8.362l2.028 2.342c-4.99 2.966-8.313 7.565-8.313 14.711M516.98 323.34h8.643v2.94h-21.975v-2.94h8.644c-1.544-3.332-4.92-5.833-10.232-7.082l1.482-2.552c6.006 1.475 9.002 3.493 11.092 6.874 2.092-3.38 5.088-5.399 11.092-6.874l1.484 2.552c-5.31 1.25-8.687 3.75-10.23 7.081" style="fill:#231f20;fill-opacity:1;fill-rule:nonzero;stroke:none" transform="matrix(1.33333 0 0 -1.33333 -273.574 559.045)"/></svg>