<svg xmlns="http://www.w3.org/2000/svg" xml:space="preserve" width="297" height="75.699997" viewBox="0 0 297 75.699995"><defs><clipPath id="a" clipPathUnits="userSpaceOnUse"><path d="M0 113.385h280.901V0H0Z"/></clipPath></defs><g clip-path="url(#a)" transform="matrix(1.33333 0 0 -1.33333 -37.796 113.385)"><path d="M0 0c-.934 9.14-11.339 16.626-23.239 16.726-11.907.095-20.793-7.235-19.859-16.371.934-9.138 11.339-16.628 23.241-16.728C-7.955-16.467.938-9.141 0 0m-39.367 2.285c-.81 7.372 6.914 13.286 17.253 13.204C-11.775 15.407-2.732 9.37-1.923 2.008c.809-7.377-6.909-13.281-17.251-13.199-10.339.072-19.382 6.113-20.193 13.476" style="fill:#fbb584;fill-opacity:1;fill-rule:nonzero;stroke:none" transform="translate(90.797 53.691)"/><path d="M0 0c-6.814-7.115-6.924-18.068-.25-24.461 6.674-6.387 17.614-5.797 24.425 1.322 6.817 7.118 6.929 18.071.252 24.461C17.754 7.71 6.815 7.12 0 0m21.719-20.098C15.857-26.23 6.446-26.734.703-21.234-5.041-15.738-4.943-6.316.923-.193 6.786 5.931 16.198 6.438 21.938.943c5.741-5.5 5.645-14.922-.219-21.041" style="fill:#f89b6c;fill-opacity:1;fill-rule:nonzero;stroke:none" transform="translate(51.113 57.236)"/><path d="M0 0c-12.649-10.014-15.868-24.528-7.194-32.409 8.676-7.887 25.964-6.156 38.615 3.857C44.071-18.54 47.292-4.029 38.614 3.855 29.933 11.74 12.647 10.018 0 0m11.323 3.928c12.194 4.566 24.248-.055 26.928-10.323 2.682-10.274-5.03-22.305-17.222-26.87-12.193-4.574-24.251.051-26.928 10.321C-8.583-12.678-.867-.646 11.323 3.928" style="fill:#f37321;fill-opacity:1;fill-rule:nonzero;stroke:none" transform="translate(40.413 76.235)"/><path d="M0 0h3.274v-2.482H0v-7.999h-3.142V5.808H0Zm-13.252-6.943c.826 0 1.535.228 2.125.686.589.458.884 1.029.884 1.716 0 .669-.295 1.232-.884 1.689-.59.458-1.299.687-2.125.687-.828 0-1.537-.229-2.126-.687-.59-.457-.884-1.02-.884-1.689 0-.687.294-1.258.884-1.716.589-.458 1.298-.686 2.126-.686m-3.644 13.147h7.287V3.907h-7.287zm4.726-20.592H.106v-2.429h-13.043c-2.815 0-4.223 1.312-4.223 3.934v2.534h3.168v-2.165c0-1.249.607-1.874 1.822-1.874m-1.082 5.227c-1.796 0-3.257.453-4.383 1.36-1.127.906-1.69 1.993-1.69 3.26 0 1.249.563 2.328 1.69 3.234 1.126.906 2.587 1.36 4.383 1.36 1.794 0 3.255-.454 4.382-1.36 1.126-.906 1.689-1.985 1.689-3.234 0-1.267-.563-2.354-1.689-3.26-1.127-.907-2.588-1.36-4.382-1.36M-6.151.818h-14.203v2.271h14.203z" style="fill:#000;fill-opacity:1;fill-rule:nonzero;stroke:none" transform="translate(119.658 62.032)"/><path d="M0 0c.827 0 1.536.229 2.125.687.59.457.885 1.029.885 1.715 0 .669-.295 1.232-.885 1.69-.589.457-1.298.686-2.125.686s-1.536-.229-2.125-.686c-.59-.458-.884-1.021-.884-1.69 0-.686.294-1.258.884-1.715C-1.536.229-.827 0 0 0m-3.643 13.147h7.286V10.85h-7.286ZM7.049 7.762H-7.155v2.271H7.049Zm-8.607-9.847c-1.126.193-2.085.615-2.877 1.267-1.091.897-1.637 1.97-1.637 3.22 0 1.25.563 2.328 1.69 3.234 1.126.906 2.587 1.36 4.382 1.36 1.795 0 3.256-.454 4.382-1.36 1.127-.906 1.69-1.984 1.69-3.234S5.526.079 4.435-.818c-.774-.634-1.716-1.057-2.825-1.267v-2.403h3.512c3.168 0 4.752 1.223 4.752 3.67v13.569h3.141V5.148h3.274V2.64h-3.274V-9.926H9.874v4.25c-.951-.845-2.359-1.267-4.224-1.267H-7.656v2.455h6.098z" style="fill:#000;fill-opacity:1;fill-rule:nonzero;stroke:none" transform="translate(132.726 55.089)"/><path d="M0 0v-.977c0-.845.484-1.267 1.452-1.267h13.517v-2.402H1.056c-2.798 0-4.198 1.152-4.198 3.458v7.999h17.953V4.409H0V2.376h14.811V0Zm17.451-9.293h-9.98v-6.31H4.25v6.31h-9.952v2.508h23.153z" style="fill:#000;fill-opacity:1;fill-rule:nonzero;stroke:none" transform="translate(156.855 60.765)"/><path d="M0 0h-3.379v-12.593h-3.142v22.678h3.142V2.534H0Zm-17.873 6.257V7.26h-5.386v2.455h13.861V7.26h-5.36V6.257c0-3.714.651-6.495 1.954-8.342 1.056-1.497 2.358-2.614 3.907-3.353V-7.92c-2.323.721-4.339 2.05-6.045 3.986a9.522 9.522 0 0 0-1.373 2.059 9.595 9.595 0 0 0-1.373-2.059c-1.708-1.936-3.723-3.265-6.046-3.986v2.482c1.549.739 2.851 1.856 3.907 3.353 1.303 1.847 1.954 4.628 1.954 8.342" style="fill:#000;fill-opacity:1;fill-rule:nonzero;stroke:none" transform="translate(201.18 57.755)"/><path d="M0 0c1.76 0 3.155.145 4.185.436 1.029.29 1.544.778 1.544 1.465 0 .703-.515 1.205-1.544 1.505-1.03.299-2.425.448-4.185.448-1.725 0-3.106-.149-4.145-.448-1.039-.3-1.557-.802-1.557-1.505 0-.687.518-1.175 1.557-1.465C-3.106.145-1.725 0 0 0m9.002 1.927c0-1.478-.792-2.569-2.376-3.273-1.584-.704-3.784-1.056-6.6-1.056s-5.016.352-6.6 1.056C-8.158-.642-8.95.449-8.95 1.927c0 1.479.792 2.57 2.376 3.274 1.584.703 3.784 1.056 6.6 1.056s5.016-.353 6.6-1.056c1.584-.704 2.376-1.795 2.376-3.274m.449 16.078H1.769c.387-1.109 1.32-2.139 2.798-3.089 1.355-.863 3.098-1.293 5.227-1.293v-2.35c-2.586-.071-4.936.431-7.048 1.505-1.144.58-2.059 1.293-2.746 2.138-.704-.845-1.628-1.558-2.772-2.138-2.112-1.074-4.461-1.576-7.049-1.505v2.35c2.13 0 3.872.43 5.228 1.293 1.478.95 2.41 1.98 2.798 3.089h-7.656v2.376H9.451Zm-21.04-8h23.152V7.497h-23.152z" style="fill:#000;fill-opacity:1;fill-rule:nonzero;stroke:none" transform="translate(214.908 47.195)"/><path d="M0 0v-17.292h-3.142v2.349h-6.019v2.323h6.019V0Zm-12.989-20.196H.053v-2.429H-13.86c-2.816 0-4.224 1.399-4.224 4.198v2.191h3.142v-1.98c0-1.32.65-1.98 1.953-1.98m2.323 19.932c2.658 0 3.987-1.197 3.987-3.59v-4.647h1.848v-2.402h-7.973v-4.383h-3.141v4.383h-5.439v2.402h11.59v4.171c0 1.144-.651 1.716-1.954 1.716h-8.316v2.35z" style="fill:#000;fill-opacity:1;fill-rule:nonzero;stroke:none" transform="translate(250.891 67.84)"/></g></svg>