<svg xmlns="http://www.w3.org/2000/svg" xml:space="preserve" width="495.48972" height="100" viewBox="0 0 495.48971 99.999998"><path d="M0 0v12.852h-11.822V0h-5.27v29.521h5.27V16.533H0v12.988h5.313V0Z" style="fill:#2f1f66;fill-opacity:1;fill-rule:nonzero;stroke:none" transform="matrix(1.59362 0 0 -1.59362 220.076 50.666)"/><path d="M0 0c-1.903 0-4.161-.818-4.605-6.087h8.457C3.941-1.727 2.436 0 0 0m-.354-20.483c-5.312 0-9.607 2.497-9.607 11.536C-9.961.091-4.737 3.179.399 3.179c5.046 0 8.677-2.634 8.677-10.082 0-.818-.043-1.364-.133-2.316h-13.68c.31-6.316 2.524-7.585 5.268-7.585 2.127 0 4.96.772 8.014 1.725l.797-3.27c-3.719-1.227-6.553-2.134-9.696-2.134" style="fill:#2f1f66;fill-opacity:1;fill-rule:nonzero;stroke:none" transform="matrix(1.59362 0 0 -1.59362 252.395 18.746)"/><path d="m0 0-.222 4.041h-.044C-2.878 1.045-5.534-.453-7.968-.453c-3.454 0-6.023 1.406-6.023 7.309v15.899h5.092V7.77c0-3.455.709-4.454 2.347-4.454 1.239 0 2.523 1.043 3.94 2.452.752.819 1.461 1.681 2.036 2.59v14.397h5.092V0Z" style="fill:#2f1f66;fill-opacity:1;fill-rule:nonzero;stroke:none" transform="matrix(1.59362 0 0 -1.59362 296.5 50.666)"/><path d="M0 0v14.896c0 2.409-.044 4.542-2.169 4.542-1.241 0-2.393-.682-4.029-2.133-.662-.681-1.416-1.679-2.08-2.68V0h-5.092v22.755h4.56l.177-4.224h.045c2.347 3.088 5.135 4.679 7.88 4.679 4.782 0 5.802-2.772 5.802-7.766V0Z" style="fill:#2f1f66;fill-opacity:1;fill-rule:nonzero;stroke:none" transform="matrix(1.59362 0 0 -1.59362 333.404 50.666)"/><path d="M0 0c-1.196.229-3.276.544-4.34.544-2.566 0-4.737-1.181-4.737-8.492 0-6.995 1.683-8.219 3.455-8.219 1.326 0 2.966 1.043 5.622 3.905zm-4.162-28.705c-3.143 0-6.242.681-8.987 1.502l1.107 3.404c2.922-.636 5.402-1.224 8.235-1.224 2.833 0 4.205 1.814 4.205 4.539 0 1.771-.176 3.046-.309 4.452-2.656-2.681-4.561-3.724-7.125-3.724-3.678 0-7.354 2.405-7.354 11.036 0 11.263 5.802 12.625 10.669 12.625 2.658 0 6.157-.59 8.77-1.179v-15.489c0-2.953.485-4.269.485-7.309 0-4.5-2.567-8.633-9.696-8.633" style="fill:#2f1f66;fill-opacity:1;fill-rule:nonzero;stroke:none" transform="matrix(1.59362 0 0 -1.59362 371.015 20.05)"/><path d="M0 0c-3.145 4.814-5.448 7.178-8.59 11.717V0h-5.092v31.793h5.092V12.628c3.54 2.315 5.978 5.63 8.014 10.127h5.754c-2.7-5.45-4.869-8.491-8.235-10.767C.087 8.04 2.876 5.586 6.682 0Z" style="fill:#2f1f66;fill-opacity:1;fill-rule:nonzero;stroke:none" transform="matrix(1.59362 0 0 -1.59362 410.04 50.666)"/><path d="m0 0-.221 4.041h-.045C-2.88 1.045-5.535-.453-7.97-.453c-3.453 0-6.021 1.406-6.021 7.309v15.899H-8.9V7.77c0-3.455.708-4.454 2.348-4.454 1.238 0 2.522 1.043 3.94 2.452.752.819 1.46 1.681 2.036 2.59v14.397h5.092V0Z" style="fill:#2f1f66;fill-opacity:1;fill-rule:nonzero;stroke:none" transform="matrix(1.59362 0 0 -1.59362 446.733 50.666)"/><path d="M0 0c-3.144 4.814-5.444 7.178-8.588 11.717V0h-5.092v31.793h5.092V12.628c3.542 2.315 5.977 5.63 8.013 10.127H5.18c-2.699-5.45-4.869-8.491-8.236-10.767C.089 8.04 2.877 5.586 6.685 0Z" style="fill:#2f1f66;fill-opacity:1;fill-rule:nonzero;stroke:none" transform="matrix(1.59362 0 0 -1.59362 484.836 50.666)"/><path d="m0 0 30.957-30.959L61.916 0 30.957 30.96Z" style="fill:#ec008c;fill-opacity:1;fill-rule:nonzero;stroke:none" transform="matrix(1.59362 0 0 -1.59362 47.055 50.663)"/><path d="M85.71 629.512h28.232V601.28H85.71ZM85.71 587.162h28.232v-28.23H85.71Z" style="fill:#ec008c;fill-opacity:1;fill-rule:nonzero;stroke:none;stroke-width:1.19522" transform="matrix(1.33333 0 0 -1.33333 -114.28 842.955)"/><path d="M0 0c-1.681 0-3.59.522-5.111 1.16l.637 2.247c1.634-.568 3.382-.998 4.542-.998 1.636 0 2.273.909 2.273 1.794 0 .634-.363 1.363-1.681 1.931l-2.728 1.182c-1.795.771-2.522 2.135-2.522 3.77 0 2.296 1.774 4.135 4.952 4.135 1.273 0 2.842-.294 4.569-.954l-.615-2.226c-1.475.5-2.93.841-4.135.841-1.431 0-2.02-.774-2.02-1.433 0-.612.362-1.248 1.612-1.815l2.726-1.205c1.932-.819 2.749-2.203 2.749-3.886C5.248 2.271 3.454 0 0 0" style="fill:#2f1f66;fill-opacity:1;fill-rule:nonzero;stroke:none" transform="matrix(1.59362 0 0 -1.59362 198.847 98.084)"/><path d="M0 0c-1.001 0-2.043-.455-2.249-2.432h4.247C2.044-.864 1.316 0 0 0m-.114-9.905c-2.726 0-4.952 1.249-4.952 5.837 0 4.363 2.681 6.11 5.381 6.11 2.57 0 4.433-1.408 4.433-5.064 0-.456-.023-1.024-.068-1.432h-6.996C-2.135-7.18-1.022-7.611.342-7.611c1.09 0 2.543.386 4.133.909l.409-2.067C2.93-9.544 1.477-9.905-.114-9.905" style="fill:#2f1f66;fill-opacity:1;fill-rule:nonzero;stroke:none" transform="matrix(1.59362 0 0 -1.59362 217.967 82.224)"/><path d="M0 0c-2.293 0-4.885 1.022-4.885 5.997 0 4.681 3.023 5.997 5.567 5.997.93 0 1.862-.181 2.818-.501l-.342-2.109c-1.16.293-1.886.407-2.636.407-1.204 0-2.634-.568-2.634-3.611 0-3.023 1.317-3.954 2.612-3.954.795 0 1.681.273 2.953.908l.634-1.997C2.703.409 1.318 0 0 0" style="fill:#2f1f66;fill-opacity:1;fill-rule:nonzero;stroke:none" transform="matrix(1.59362 0 0 -1.59362 236.506 98.047)"/><path d="m0 0-.112 1.819h-.025C-1.498.387-2.817-.204-4.067-.204c-1.772 0-3.09.725-3.09 3.77v7.95h2.682V4.043c0-1.477.363-1.885 1.158-1.885.614 0 1.251.317 1.976.931.389.34.751.726 1.046 1.115v7.312h2.68V0Z" style="fill:#2f1f66;fill-opacity:1;fill-rule:nonzero;stroke:none" transform="matrix(1.59362 0 0 -1.59362 257.723 97.684)"/><path d="M0 0c-.499.136-.863.181-1.183.181-1.136 0-1.928-.637-2.701-2.385v-6.702h-2.681V2.609h2.386l.113-1.997h.023c.887 1.658 1.931 2.159 3.225 2.159.479 0 1-.116 1.386-.25z" style="fill:#2f1f66;fill-opacity:1;fill-rule:nonzero;stroke:none" transform="matrix(1.59362 0 0 -1.59362 276.481 83.491)"/><path d="M295.002 572.61h3.203v-13.657h-3.203zm1.628 2.065c-1.223 0-1.926.622-1.926 1.79 0 1.088.703 1.74 1.926 1.74 1.249 0 1.928-.652 1.928-1.74 0-1.168-.679-1.79-1.928-1.79" style="fill:#2f1f66;fill-opacity:1;fill-rule:nonzero;stroke:none;stroke-width:1.19522" transform="matrix(1.33333 0 0 -1.33333 -114.28 842.955)"/><path d="M0 0c-2.385 0-2.862 1.477-2.862 3.497v5.75h-1.591v2.179h1.749l.25 2.702h2.272v-2.702h3.181V9.247H-.182V4.021c0-1.091.205-1.635 1.067-1.635.593 0 1.251.18 2.295.681l.296-2C2.589.548 1.137 0 0 0" style="fill:#2f1f66;fill-opacity:1;fill-rule:nonzero;stroke:none" transform="matrix(1.59362 0 0 -1.59362 293.139 98.047)"/><path d="M311.54 572.61h3.204v-13.657h-3.205zm1.628 2.065c-1.223 0-1.928.622-1.928 1.79 0 1.088.705 1.74 1.928 1.74 1.25 0 1.928-.652 1.928-1.74 0-1.168-.679-1.79-1.928-1.79" style="fill:#2f1f66;fill-opacity:1;fill-rule:nonzero;stroke:none;stroke-width:1.19522" transform="matrix(1.33333 0 0 -1.33333 -114.28 842.955)"/><path d="M0 0c-.999 0-2.044-.455-2.25-2.432h4.249C2.044-.864 1.318 0 0 0m-.113-9.905c-2.728 0-4.952 1.249-4.952 5.837 0 4.363 2.681 6.11 5.383 6.11 2.568 0 4.429-1.408 4.429-5.064 0-.456-.022-1.024-.069-1.432h-6.994C-2.137-7.18-1.021-7.611.34-7.611c1.092 0 2.546.386 4.134.909l.408-2.067C2.931-9.544 1.477-9.905-.113-9.905" style="fill:#2f1f66;fill-opacity:1;fill-rule:nonzero;stroke:none" transform="matrix(1.59362 0 0 -1.59362 317.326 82.224)"/><path d="M0 0c-1.364 0-3.023.499-4.022.954l.568 2.044c1.135-.363 2.658-.729 3.635-.729 1.295 0 1.817.479 1.817 1.07 0 .452-.319.863-1.16 1.203l-2.067.795c-1.318.523-2.292 1.454-2.292 3.114 0 1.567 1.293 3.428 4.246 3.428 1.181 0 2.589-.316 3.793-.816l-.522-2.09c-1.41.453-2.567.681-3.453.681-1.111 0-1.499-.431-1.499-.885 0-.456.342-.864 1.249-1.227l2.067-.817c1.614-.615 2.318-1.73 2.318-3.114C4.678 2.041 3.521 0 0 0" style="fill:#2f1f66;fill-opacity:1;fill-rule:nonzero;stroke:none" transform="matrix(1.59362 0 0 -1.59362 333.551 97.9)"/></svg>